<?xml version="1.0" encoding="UTF-8"?>
<!DOCTYPE svg PUBLIC "-//W3C//DTD SVG 1.0//EN" "http://www.w3.org/TR/2001/REC-SVG-20010904/DTD/svg10.dtd">
<!-- Creator: CorelDRAW -->
<svg xmlns="http://www.w3.org/2000/svg" xml:space="preserve" width="3.6in" height="3.59999in" version="1.0" shape-rendering="geometricPrecision" text-rendering="geometricPrecision" image-rendering="optimizeQuality" fill-rule="evenodd" clip-rule="evenodd"
viewBox="0 0 3600 3599.99"
 xmlns:xlink="http://www.w3.org/1999/xlink"
 xmlns:xodm="http://www.corel.com/coreldraw/odm/2003">
 <g id="Layer_x0020_1">
  <metadata id="CorelCorpID_0Corel-Layer"/>
  <path fill="#090A0C" d="M1800 133.97c920.05,0 1666.03,745.98 1666.03,1666.03 0,920.05 -745.98,1666.03 -1666.03,1666.03 -920.05,0 -1666.03,-745.98 -1666.03,-1666.03 0,-920.05 745.98,-1666.03 1666.03,-1666.03z"/>
  <path fill="#0092E0" d="M1800 208.97c878.65,0 1591.03,712.37 1591.03,1591.03 0,878.65 -712.37,1591.03 -1591.03,1591.03 -878.65,0 -1591.03,-712.37 -1591.03,-1591.03 0,-878.65 712.37,-1591.03 1591.03,-1591.03z"/>
  <path fill="#0069B5" d="M1800 283.97c837.26,0 1516.03,678.77 1516.03,1516.03 0,837.26 -678.77,1516.03 -1516.03,1516.03 -837.26,0 -1516.03,-678.77 -1516.03,-1516.03 0,-837.26 678.77,-1516.03 1516.03,-1516.03z"/>
  <path fill="#FEFEFE" d="M1800 358.97c795.86,0 1441.03,645.17 1441.03,1441.03 0,795.86 -645.17,1441.03 -1441.03,1441.03 -795.86,0 -1441.03,-645.17 -1441.03,-1441.03 0,-795.86 645.17,-1441.03 1441.03,-1441.03z"/>
  <path fill="#0069B5" d="M1634.25 1522.8c26.68,9.07 51.97,21.81 74.56,39.3 35.82,27.72 56.74,64.38 59.99,109.63 3.26,28 5.37,56.24 7.09,84.37 2.04,33.4 4.06,66.8 6.04,100.2 1.91,32.24 4.2,64.46 7,96.63 1.89,21.76 4.65,45.98 10.7,67.16 6.76,11.74 15.44,22.49 26.78,30.08l8.88 5.94 0 45.63 -418.78 0 -5.48 -11.21c-5.51,-11.26 -10.33,-22.89 -14.16,-34.83 -3.74,-11.67 -6.36,-23.66 -7.85,-35.82l-0.08 -0.67 -0.04 -0.68c-2.56,-47.58 -3.47,-95.32 -2.04,-142.95 1.16,-38.26 0.02,-77.33 -5.81,-115.21 -4.02,-26.14 -12.27,-53.33 -29.04,-74.26 -16.31,-20.37 -47.89,-25.67 -72.4,-26.89l-96.21 0 0 442.52 -394.11 0 0 -1161.25 537.08 0c109.19,0 244.39,12.58 337.96,74.32 87.92,58 116.63,153.79 116.63,255.15 0,57.62 -11.34,114.26 -41.04,164.2 -23.81,40.05 -63.26,68.3 -105.67,88.65zm871.26 -150.63l0 -91.76c0,-31.99 -4.88,-70.13 -26.41,-95.43 -17.47,-20.52 -39.41,-29.59 -66.44,-29.59 -26.31,-0.48 -75.48,1.17 -94.35,22.98 -17.43,20.15 -22.19,47.85 -22.28,73.7l-2.02 554.65c-0.08,22.21 5.05,43.74 21.78,59.28 19.58,18.19 59.87,20.82 84.98,20.82 19.7,0 42.89,-2.5 60.13,-12.85 13.68,-8.2 25.17,-18.82 33.3,-32.61 8.06,-13.69 12.78,-28.49 14.45,-44.29 1.83,-17.16 2.91,-34.44 2.91,-51.71l0 -121.66 394.11 0 0 157.54c0,49.15 -9.8,96.66 -31.15,140.99 -22.02,45.7 -55.77,82.41 -97.02,111.56 -48.94,34.58 -107.88,56.19 -165.72,70.37 -76.62,18.78 -158.44,24.5 -237.14,24.5 -70.71,0 -145.3,-5.54 -213.63,-24.66 -53.09,-14.85 -104.81,-37.79 -147.31,-73.46 -38.86,-32.62 -67.38,-72.91 -85.32,-120.37 -19.14,-50.62 -26.44,-104.9 -26.44,-158.81l0 -460.46c0,-111.98 31.29,-217.33 123.7,-286.59 100.32,-75.19 249.77,-90.7 371.13,-90.7 68.85,0 138.8,5.02 206.29,19.11 55.3,11.54 110.26,30.16 158.4,60.17 43.6,27.17 78.38,63.15 102.63,108.45 25.84,48.29 35.57,102.33 35.57,156.69l0 114.19 -394.12 0zm-1322.11 -190.25l0 235.47 100.72 0c18.11,0 38.24,-2.15 54.79,-10.02 12.36,-5.88 23.54,-13.9 31.63,-25.07 8.04,-11.09 13.04,-23.6 15.69,-37 3.06,-15.47 4.65,-31.17 4.65,-46.94 0,-21.88 -2.12,-48.93 -12,-68.85 -7.52,-15.16 -19.06,-25.6 -34.49,-32.48 -21.3,-9.5 -47.17,-12.89 -70.27,-13.99 -30.15,-1.43 -60.49,-1.58 -90.72,-1.11z"/>
  <path fill="#0069B5" fill-rule="nonzero" d="M1163.39 1437.39l120.72 0c25.48,0 46.61,-3.99 63.38,-11.96 16.76,-7.97 29.84,-18.44 39.23,-31.39 9.39,-12.96 15.76,-27.91 19.11,-44.85 3.35,-16.94 5.03,-33.89 5.03,-50.83 0,-32.89 -4.7,-58.8 -14.08,-77.74 -9.39,-18.94 -24.15,-32.89 -44.27,-41.86 -20.12,-8.97 -45.94,-14.2 -77.46,-15.7 -31.52,-1.5 -68.74,-1.74 -111.67,-0.75l0 275.08zm0 644.34l-354.11 0 0 -1121.25 517.08 0c146.2,0 255.19,23.67 326.95,71.01 71.76,47.34 107.65,126.82 107.65,238.45 0,59.8 -12.74,111.13 -38.23,153.98 -25.48,42.85 -75.12,76.74 -148.89,101.66l0 2.99c49.64,7.97 90.54,24.42 122.73,49.33 32.2,24.92 49.64,56.81 52.31,95.68 2.68,22.93 5.03,50.83 7.04,83.72 2.01,32.89 4.02,66.28 6.04,100.16 2.01,33.89 4.36,66.28 7.04,97.17 2.69,30.9 6.71,55.31 12.07,73.26 9.39,16.94 20.79,29.9 34.2,38.87l0 14.95 -386.3 0c-5.37,-10.96 -9.73,-21.68 -13.07,-32.15 -3.36,-10.46 -5.7,-21.18 -7.04,-32.14 -2.69,-49.83 -3.35,-96.93 -2.02,-141.28 1.34,-44.35 -0.67,-83.97 -6.04,-118.85 -5.37,-34.89 -16.43,-62.79 -33.2,-83.72 -16.77,-20.93 -45.94,-32.39 -87.52,-34.38l-116.7 0 0 442.52zm1362.11 -729.56l0 -71.76c0,-47.84 -10.39,-83.97 -31.18,-108.39 -20.79,-24.42 -47.95,-36.63 -81.48,-36.63 -55,-1 -91.55,8.97 -109.66,29.9 -18.11,20.93 -27.16,49.83 -27.16,86.71l-2.02 554.65c0,31.89 9.39,56.56 28.17,74 18.78,17.44 51.64,26.17 98.59,26.17 29.51,0 52.98,-5.24 70.42,-15.7 17.44,-10.46 30.85,-23.67 40.24,-39.62 9.39,-15.94 15.09,-33.39 17.11,-52.32 2.01,-18.94 3.02,-36.88 3.02,-53.82l0 -101.66 354.11 0 0 137.54c0,47.84 -9.73,91.94 -29.17,132.31 -19.45,40.37 -49.63,75 -90.54,103.9 -40.91,28.9 -93.89,51.33 -158.94,67.28 -65.06,15.94 -142.52,23.92 -232.38,23.92 -81.83,0 -151.24,-7.98 -208.24,-23.92 -57.01,-15.95 -103.61,-39.12 -139.83,-69.52 -36.21,-30.39 -62.7,-67.77 -79.47,-112.12 -16.77,-44.35 -25.15,-94.93 -25.15,-151.74l0 -460.46c0,-122.59 38.56,-212.78 115.69,-270.59 77.12,-57.81 196.83,-86.71 359.14,-86.71 75.11,0 142.52,6.22 202.2,18.69 59.69,12.46 110.33,31.65 151.91,57.56 41.58,25.91 73.44,59.55 95.57,100.91 22.13,41.36 33.2,90.44 33.2,147.26l0 94.19 -354.12 0z"/>
  <path fill="#0092E0" fill-rule="nonzero" d="M1163.39 1437.39l0 -275.08c42.93,-1 80.15,-0.75 111.67,0.75 31.52,1.5 57.34,6.73 77.46,15.7 20.12,8.97 34.87,22.93 44.27,41.86 9.39,18.93 14.08,44.85 14.08,77.74 0,16.94 -1.68,33.89 -5.03,50.83 -3.35,16.94 -9.73,31.89 -19.11,44.85 -9.39,12.96 -22.47,23.42 -39.23,31.39 -16.77,7.98 -37.9,11.96 -63.38,11.96l-120.72 0zm758.57 321.14c120.43,-1.21 238.16,-5.28 352.27,-12.01l1.8 -494.51c0,-36.88 9.05,-65.78 27.16,-86.71 18.11,-20.93 54.66,-30.9 109.66,-29.9 33.53,0 60.69,12.21 81.48,36.63 20.79,24.42 31.18,60.55 31.18,108.39l0 71.76 354.12 0 0 -94.19c0,-56.81 -11.07,-105.9 -33.2,-147.26 -22.13,-41.36 -53.99,-75 -95.57,-100.91 -41.58,-25.91 -92.22,-45.1 -151.91,-57.56 -59.69,-12.46 -127.09,-18.69 -202.2,-18.69 -162.3,0 -282.02,28.9 -359.14,86.71 -77.13,57.81 -115.69,148 -115.69,270.59l0 460.46c0,2.41 0.02,4.8 0.05,7.19zm609.59 -32.17c124.21,-12.26 242.71,-27.75 354.11,-46.11l0 -36.55 -354.11 0 0 82.67zm-1722.26 -46.11c111.4,18.37 229.9,33.86 354.11,46.12l0 -87.15 116.7 0c41.57,1.99 70.75,13.45 87.52,34.38 14.78,18.45 25.13,42.33 31.05,71.62 115.62,7.19 235.06,11.65 357.33,13.14l-0.06 -1.04c-2.01,-32.89 -4.36,-60.8 -7.04,-83.72 -2.68,-38.87 -20.12,-70.76 -52.31,-95.68 -32.19,-24.91 -73.09,-41.36 -122.73,-49.33l0 -2.99c73.78,-24.91 123.41,-58.8 148.89,-101.66 25.48,-42.86 38.23,-94.19 38.23,-153.98 0,-111.63 -35.88,-191.11 -107.65,-238.45 -71.76,-47.34 -180.74,-71.01 -326.95,-71.01l-517.08 0 0 719.76z"/>
  <path fill="#0069B5" d="M953.37 2348.56c0.56,0.49 1.12,0.98 1.69,1.46l0.22 0.19 0.21 0.21c7.72,7.48 15.61,14.8 23.54,21.85 8.71,7.28 17.18,15.06 25.47,23.02l0.26 0.25 0.24 0.27c8.8,9.83 16.09,20.97 22.26,32.61 7.22,13.65 12.36,28.41 16.06,43.53 4.26,19.91 5.65,40.63 5.65,60.82l0 43.01c-0.45,31.35 -10.74,59.51 -37.76,77.09 -25.82,16.02 -54.89,22.42 -84.95,22.42 -29.68,0 -58.29,-6.45 -83.63,-22.26 -27.63,-17.25 -38.75,-44.88 -39.09,-76.8l0 -122.09 99.41 0c-2.28,-2.93 -4.66,-5.8 -7.13,-8.57 -7.82,-7.7 -15.91,-15.18 -24.43,-22.09l-0.22 -0.19 -0.21 -0.2c-8.18,-7.5 -16.2,-15.18 -24.39,-22.66 -7.99,-7.29 -15.66,-14.94 -22.67,-23.43 -7.33,-9.59 -12.71,-20.22 -16.61,-31.43 -5.39,-12.33 -7.44,-25.86 -7.44,-39.25l0 -61.89c0.46,-32.15 11.26,-60.71 39.35,-78.24 25.7,-14.9 54.12,-20.93 83.49,-20.93 29.55,0 58.72,5.69 84.59,20.85 27.54,17.59 37.8,45.98 38.24,77.63l0 104.83 -92.14 0zm-23.26 -107.93c-1.6,-2.84 -4.17,-3.8 -7.45,-4.06 -2.77,0.21 -5.15,0.85 -6.06,3.83 -2.05,6.34 -3.23,12.74 -3.25,19.32 0.94,21.9 5.09,47.52 18.65,65.71l0 -65.52c0,-6.49 -0.68,-12.92 -1.89,-19.29zm-13.31 234.02l0 85.97c0,6.1 1,11.97 3.1,17.7l0.18 0.48 0.12 0.49c0.89,3.59 2.22,4.71 5.93,4.71 4.04,0 5.98,-1.59 7.4,-5.15 1.32,-5.98 1.98,-12 1.93,-18.13 -0.28,-28.31 -4.17,-61.09 -18.65,-86.07zm343.22 -25.04c-11.84,8.42 -25.26,14.1 -39.24,17.89 -15.23,4.13 -30.91,5.97 -46.67,5.97l-7.83 0 0 192.14 -113.51 0 0 -510.69 122.65 0c30.01,-0.44 59.23,5.78 84.96,22.18 28.79,19.89 37.52,53.43 37.83,86.68l0 100.94c-0.31,33.11 -9.25,65.84 -38.19,84.88zm168.85 -205.46l0 93.94 78.97 0 0 89.1 -78.97 0 0 149.2 82.66 0 0 89.22 -195.94 0 0 -510.69 195.94 0 0 89.22 -82.66 0zm204.35 0l0 93.94 78.97 0 0 89.1 -78.97 0 0 149.2 82.66 0 0 89.22 -195.94 0 0 -510.69 195.94 0 0 89.22 -82.66 0zm83.93 421.47l0 -510.69 122.72 0c29.52,0 58.57,5.65 84.37,20.48l0.24 0.14 0.22 0.15c27.3,17.86 37.55,46.52 37.89,78.3l0 312.55c-0.34,31.39 -10.87,59.24 -38,76.99 -25.77,15.89 -54.81,22.08 -84.72,22.08l-122.72 0zm539.03 -286.26l17.37 -224.43 116.62 0 -70.65 510.69 -128.81 0 -25.69 -267.09 -29.1 267.09 -126.26 0 -51.52 -510.69 116.82 0 14.14 228.93 25.18 -228.93 122.69 0 19.22 224.43zm259.63 152.14l-27.5 0 -14.74 134.12 -103.51 0 73.52 -510.69 141.62 0 58.93 510.69 -117.5 0 -10.82 -134.12zm193.6 -120.44l-81.76 -256.12 120.02 0 22.59 146.8 22.33 -146.8 105.7 0 -75.6 256.02 0 254.67 -113.28 0 0 -254.56zm-1543.13 -166.91l0 140.22 3.34 0 0.22 0.01c13.51,0.66 15.09,-10.2 15.09,-21.66l0 -96.93c0,-11.6 -1.82,-22.02 -15.41,-21.65l-3.24 0zm664.39 0l0 332.25 9.33 0c4.05,0 5.99,-1.61 7.41,-5.18 1.33,-5.86 1.91,-11.83 1.91,-17.85l0 -286.2c0,-6.38 -0.66,-12.68 -1.88,-18.93 -1.64,-2.93 -4.31,-3.87 -7.74,-4.1l-9.04 0zm667.22 198.25l10.72 0 -4.79 -76.4 -5.93 76.4z"/>
  <path fill="#0069B5" fill-rule="nonzero" d="M1036.07 2339.13l0 -95.32c-0.46,-32.47 -11.74,-55.61 -33.73,-69.65 -22.22,-13.01 -48.81,-19.45 -79.67,-19.45 -30.05,0 -56.18,6.56 -78.63,19.57 -22.68,14.16 -34.31,37.65 -34.77,70.22l0 61.82c0,13.7 2.3,25.67 6.79,35.8 3.8,11.05 8.87,20.72 15.2,29.01 6.56,7.94 13.81,15.31 21.64,22.33 7.94,7.37 16,14.97 24.41,22.68 8.52,6.91 16.92,14.62 25.33,22.91 7.83,8.75 15.08,18.65 21.64,29.7 13.24,22.1 20.15,52.72 20.61,91.87 0,7.48 -0.81,14.39 -2.31,20.96 -2.87,7.83 -8.4,11.85 -16.46,11.85 -8.06,0 -13.12,-4.03 -15.08,-11.85 -2.41,-6.56 -3.68,-13.47 -3.68,-20.96l0 -97.05 -94.4 0 0 112.59c0.35,31.78 11.97,54.69 34.65,68.85 22.34,13.93 48.59,20.83 78.63,20.83 30.85,0 57.44,-7.02 79.89,-20.95 21.76,-14.16 32.93,-37.3 33.39,-69.19l0 -42.94c0,-22.45 -1.84,-42.02 -5.41,-58.71 -3.92,-16 -8.98,-29.7 -15.2,-41.22 -6.1,-11.74 -13.13,-21.99 -20.96,-30.74 -8.4,-8.06 -16.69,-15.66 -25.09,-22.68 -8.29,-7.37 -16.35,-14.85 -23.94,-22.22 -7.94,-6.79 -15.31,-14.5 -22.33,-23.37 -13.7,-16.58 -21.3,-41.22 -22.68,-73.91 0,-7.48 1.27,-14.85 3.69,-22.33 1.96,-6.45 7.02,-10.02 15.08,-10.48 8.06,0.46 13.58,4.03 16.46,10.48 1.5,7.48 2.3,14.85 2.3,22.33l0 79.2 94.63 0zm120.77 -104.42l12.55 0c16.58,-0.46 24.98,9.9 24.98,31.08l0 96.93c0,21.53 -8.4,31.89 -24.98,31.08l-12.55 0 0 -159.1zm0 421.47l0 -192.14 17.27 0c15.54,0 30.28,-1.84 44.21,-5.64 13.7,-3.69 25.9,-9.09 36.38,-16.58 22.33,-14.62 33.73,-40.3 34.07,-77.13l0 -100.85c-0.34,-37.3 -11.63,-63.67 -33.61,-78.86 -22.22,-14.16 -48.7,-21.07 -79.67,-20.61l-113.28 0 0 491.81 94.63 0zm345.26 0l0 -70.34 -82.66 0 0 -168.08 78.97 0 0 -70.22 -78.97 0 0 -112.82 82.66 0 0 -70.34 -177.06 0 0 491.81 177.06 0zm204.35 0l0 -70.34 -82.66 0 0 -168.08 78.97 0 0 -70.22 -78.97 0 0 -112.82 82.66 0 0 -70.34 -177.06 0 0 491.81 177.06 0zm20.15 0l113.28 0c30.97,0 57.44,-6.91 79.67,-20.61 21.99,-14.39 33.27,-37.42 33.61,-69.07l0 -312.45c-0.34,-32.58 -11.63,-56.07 -33.61,-70.45 -22.22,-12.78 -48.7,-19.23 -79.67,-19.23l-113.28 0 0 491.81zm94.63 -421.47l18.76 0c8.06,0.46 13.59,4.03 16.46,10.48 1.5,7.25 2.3,14.5 2.3,21.98l0 286.2c0,7.48 -0.8,14.28 -2.3,20.61 -2.87,7.83 -8.4,11.85 -16.46,11.85l-18.76 0 0 -351.13zm301.51 -70.34l-35.46 322.46 -1.27 0 -19.92 -322.46 -97.51 0 49.62 491.81 109.26 0 37.41 -343.42 1.38 0 33.04 343.42 112.02 0 68.04 -491.81 -97.05 0 -24.98 322.69 -1.38 0 -27.63 -322.69 -105.57 0zm364.94 287.46l15.66 -201.81 2.65 0 12.66 201.81 -30.97 0zm-106.72 204.35l84.15 0 14.74 -134.12 44.67 0 10.82 134.12 98.2 0 -56.76 -491.81 -125.03 0 -70.8 491.81zm337.89 0l94.41 0 0 -246.59 72.41 -245.22 -84.96 0 -29.7 195.25 -1.39 0 -30.04 -195.25 -99.01 0 78.28 245.22 0 246.59z"/>
  <path fill="#0092E0" fill-rule="nonzero" d="M1036.07 2339.13l0 -95.32c-0.46,-32.47 -11.74,-55.61 -33.73,-69.65 -22.22,-13.01 -48.81,-19.45 -79.67,-19.45 -30.05,0 -56.18,6.56 -78.63,19.57 -22.68,14.16 -34.31,37.65 -34.77,70.22l0 61.82c0,11.77 1.7,22.26 5.03,31.42 47.89,15.07 101.05,29.06 158.72,41.82l-0.15 -0.13c-8.29,-7.37 -16.35,-14.85 -23.94,-22.22 -7.94,-6.79 -15.31,-14.5 -22.33,-23.37 -13.7,-16.58 -21.3,-41.22 -22.68,-73.91 0,-7.48 1.27,-14.85 3.69,-22.33 1.96,-6.45 7.02,-10.02 15.08,-10.48 8.06,0.46 13.58,4.03 16.46,10.48 1.5,7.48 2.3,14.85 2.3,22.33l0 79.2 94.63 0zm822.69 123.06c31.74,-0.07 63.23,-0.4 94.4,-1.02l0 -207.12c-0.34,-32.58 -11.63,-56.07 -33.61,-70.45 -22.22,-12.78 -48.7,-19.23 -79.67,-19.23l-113.28 0 0 296.47c31.24,0.71 62.8,1.15 94.63,1.3l0 -227.43 18.76 0c8.06,0.46 13.59,4.03 16.46,10.48 1.5,7.25 2.3,14.5 2.3,21.98l0 195.02zm139.66 -2.12c28.87,-0.82 57.48,-1.85 85.75,-3.13l-18.07 -292.57 -97.51 0 29.83 295.7zm92.19 -3.44c19.8,-0.92 39.45,-1.94 58.93,-3.07l15.34 -140.79 1.38 0 13.37 138.95c24.57,-1.59 48.85,-3.36 72.83,-5.29l-24.15 -282.05 -105.57 0 -32.14 292.26zm169.91 -10.86c27.39,-2.25 54.37,-4.71 80.93,-7.39l37.91 -274.01 -97.05 0 -21.79 281.4zm152.94 -15.26c26.04,-3.09 51.59,-6.39 76.66,-9.89l13.23 -170.6 2.65 0 10.46 166.83c30.07,-4.42 59.38,-9.12 87.85,-14.1l-27.51 -238.38 -125.03 0 -38.31 266.14zm296.65 -48.35c42.48,-9.18 82.53,-19.03 119.96,-29.46l55.61 -188.32 -84.96 0 -29.7 195.25 -1.39 0 -30.04 -195.25 -99.01 0 69.53 217.79zm-1647.89 15.48c64.66,11.97 133.94,22.48 206.98,31.38 12.78,-15.13 19.32,-36.56 19.58,-64.33l0 -100.85c-0.34,-37.3 -11.63,-63.67 -33.61,-78.86 -22.22,-14.16 -48.7,-21.07 -79.67,-20.61l-113.28 0 0 233.27zm262.83 37.78c30.87,3.32 62.35,6.37 94.4,9.11l0 -26.76 78.97 0 0 -70.22 -78.97 0 0 -112.82 82.66 0 0 -70.34 -177.06 0 0 271.05zm204.35 17.17c31.05,1.91 62.53,3.56 94.4,4.91l0 -39.74 78.97 0 0 -70.22 -78.97 0 0 -112.82 82.66 0 0 -70.34 -177.06 0 0 288.22zm-372.54 -217.87l12.55 0c16.58,-0.46 24.98,9.9 24.98,31.08l0 96.93c0,21.53 -8.4,31.89 -24.98,31.08l-12.55 0 0 -159.1z"/>
 </g>
</svg>
