<?xml version="1.0" encoding="UTF-8"?>
<!DOCTYPE svg PUBLIC "-//W3C//DTD SVG 1.0//EN" "http://www.w3.org/TR/2001/REC-SVG-20010904/DTD/svg10.dtd">
<!-- Creator: CorelDRAW -->
<svg xmlns="http://www.w3.org/2000/svg" xml:space="preserve" width="6.39999in" height="3.59999in" version="1.0" shape-rendering="geometricPrecision" text-rendering="geometricPrecision" image-rendering="optimizeQuality" fill-rule="evenodd" clip-rule="evenodd"
viewBox="0 0 6399.99 3599.99"
 xmlns:xlink="http://www.w3.org/1999/xlink"
 xmlns:xodm="http://www.corel.com/coreldraw/odm/2003">
 <g id="Layer_x0020_1">
  <metadata id="CorelCorpID_0Corel-Layer"/>
  <g id="_3135069947856">
   <path fill="#090A0C" d="M3200 277.78c388.16,0 777.13,31.32 1159.16,100.89 327.93,59.72 654.2,147.42 960.8,279.43 433.02,186.44 967.66,534.79 967.66,1064.78 0,530 -534.63,878.34 -967.66,1064.78 -306.6,132.01 -632.86,219.71 -960.8,279.43 -382.02,69.57 -771,100.89 -1159.16,100.89 -388.16,0 -777.13,-31.32 -1159.16,-100.89 -327.93,-59.72 -654.2,-147.42 -960.8,-279.43 -433.02,-186.44 -967.66,-534.79 -967.66,-1064.78 0,-530 534.63,-878.34 967.66,-1064.78 306.6,-132.01 632.86,-219.71 960.8,-279.43 382.02,-69.57 771,-100.89 1159.16,-100.89z"/>
   <path fill="#0092E0" d="M3200 345.51c383.87,0 769.22,30.99 1147.02,99.79 322.27,58.69 644.87,145.28 946.15,275 404.83,174.3 926.72,504.79 926.72,1002.58 0,497.8 -521.89,828.28 -926.72,1002.58 -301.28,129.72 -623.88,216.31 -946.15,275 -377.8,68.8 -763.15,99.79 -1147.02,99.79 -383.87,0 -769.22,-30.99 -1147.02,-99.79 -322.27,-58.69 -644.87,-145.28 -946.15,-275 -404.83,-174.3 -926.72,-504.79 -926.72,-1002.58 0,-497.8 521.89,-828.28 926.72,-1002.58 301.28,-129.72 623.88,-216.31 946.15,-275 377.8,-68.8 763.15,-99.79 1147.02,-99.79z"/>
   <path fill="#0069B5" d="M3200 413.23c379.27,0 761.61,30.72 1134.89,98.69 316.06,57.56 636,143.35 931.5,270.58 374.72,161.34 885.77,474.54 885.77,940.38 0,465.84 -511.05,779.04 -885.77,940.38 -295.51,127.23 -615.45,213.02 -931.5,270.58 -373.28,67.98 -755.62,98.69 -1134.89,98.69 -379.27,0 -761.61,-30.72 -1134.89,-98.69 -316.06,-57.56 -636,-143.35 -931.5,-270.58 -374.72,-161.34 -885.77,-474.54 -885.77,-940.38 0,-465.84 511.05,-779.04 885.77,-940.38 295.51,-127.23 615.45,-213.02 931.5,-270.58 373.28,-67.98 755.62,-98.69 1134.89,-98.69z"/>
   <path fill="#FEFEFE" d="M3200 480.96c1593.03,0 2884.44,556.03 2884.44,1241.93 0,685.9 -1291.41,1241.93 -2884.44,1241.93 -1593.03,0 -2884.44,-556.03 -2884.44,-1241.93 0,-685.9 1291.41,-1241.93 2884.44,-1241.93z"/>
  </g>
  <g id="_3135069947664">
   <path fill="#0069B5" d="M4606.44 1126.5l208.61 0 45.76 220.98 45.24 -220.98 182.56 0 -137.41 345.74 0 342.89 -196.15 0 0 -342.71 -133.52 -310.76 0 84.44 -115.89 0 0 569.04 -196.15 0 0 -569.04 -115.26 0 0 -119.59 412.2 0zm-2820.24 173.85c30.32,6.29 59.41,16.83 78.39,34.72 33.39,31.47 41.26,79.86 40.28,123.57l0 181.79c0,29.76 2.03,66.98 12.78,95.04l0.16 0.44c7.1,20.92 14.4,41.85 22.37,62.45l6.48 16.75 -265.79 0 -3.63 -5.69c-9.57,-15 -16.55,-32.09 -22,-48.98 -9.59,-23.32 -12.02,-51.02 -12.02,-75.99l0 -209.17 0.01 -0.18c0.66,-22.33 -1.04,-47.05 -10,-67.81 -9.44,-16.28 -38.65,-20.34 -59.61,-21.28l0 429.1 -262.23 0 0 -942.19 296.68 0c70.06,-0.78 141.52,9.39 205.37,39.63l0.39 0.19c63,32.59 90.2,88.54 91.06,157.98l0 81.27c0,18.13 -2.35,36.17 -7.07,53.67l-0.24 0.92 -0.39 0.87c-8.15,18.41 -19.73,34.81 -33.52,49.43l-0.18 0.2 -0.2 0.19c-17.41,16.9 -39.44,29.11 -61.92,37.86 -4.93,1.92 -9.99,3.65 -15.15,5.2zm1855.61 -273.29c-6.47,-9.4 -19.16,-11.91 -29.93,-12.43 -9.12,0.44 -22.56,2.36 -26.44,12.02l-0.17 0.39c-5.13,11.61 -8.2,23.96 -8.2,36.69l0 560.59c0,11.9 2.69,23.18 7.97,33.83l0.37 0.75 0.27 0.8c3.89,11.57 15.24,13.74 26.2,13.74 12.42,0 23.8,-3.09 29.87,-14.44 3.35,-11.28 4.93,-22.91 4.93,-34.68l0 -194.02 261.66 0 0 223.75c-0.95,65.12 -32.85,111.82 -91.5,139.29 -63.77,29.87 -135.38,39.82 -205.25,39.82 -69.38,0 -139.29,-10.87 -202.61,-40.23 -59.33,-27.51 -92.86,-73.87 -94.14,-139.92l0 -618.6c1.27,-66.63 34.17,-113.89 94.12,-141.85l0.33 -0.15c63.63,-27.4 133.39,-37.52 202.3,-37.52 69.57,0 140.74,9.61 204.94,37.54l0.37 0.17c59.26,28.12 90.5,75.84 91.44,141.62l0 186.38 -261.66 0 0 -156.87c0,-12.39 -1.74,-24.7 -4.87,-36.67zm-1694.09 668.1l0 -449.22c0.95,-49.48 25.59,-84.5 70.11,-105.09l0.3 -0.13c46.46,-20 97.44,-27.27 147.74,-27.27 50.82,0 102.77,7.04 149.67,27.45l0.41 0.19c43.99,21.05 67.38,56.72 68.08,105.67l0 447.66c-0.71,48.54 -24.48,83.69 -68.14,104.3 -46.61,22 -98.86,29.47 -150.01,29.47 -50.64,0 -101.73,-7.81 -148.02,-29.11 -44.08,-20.27 -69.17,-54.81 -70.13,-103.92zm656.46 -164.69c-4.04,-3.83 -8.19,-7.53 -12.46,-11.09 -14.51,-10.63 -29.38,-20.81 -44.8,-30.09l-0.3 -0.18 -0.28 -0.2c-14.83,-10.12 -29.46,-20.53 -44.32,-30.6 -14.13,-9.58 -27.94,-19.76 -40.65,-31.19l-0.35 -0.33c-12.54,-12.2 -22.52,-26.41 -29.94,-42.25 -9.69,-16.51 -13.74,-35.03 -13.74,-54.08l0 -83.58c0.94,-49.65 25.6,-85.13 70.31,-105.86l0.31 -0.14c46.55,-20.05 97.32,-27.43 147.74,-27.43 50.7,0 102.87,6.93 149.67,27.29l0.37 0.17c43.95,20.86 67.39,56.17 68.32,105.04l0 141.13 -166.7 0c0.87,0.57 1.75,1.14 2.63,1.7l0.31 0.19 0.29 0.21c14.16,10.2 28.54,20.1 42.95,29.62 15.63,9.7 30.98,20.18 46.11,30.96l0.37 0.26 0.35 0.29c15.37,12.76 28.85,27.55 40.23,43.83 12.93,17.8 22.39,37.99 29.28,58.94l0.14 0.44c7.66,26.63 10.31,55.04 10.31,82.67l0 58.09c-0.94,48.31 -24.36,83.46 -67.72,104.43 -47.06,21.7 -99.06,29.47 -150.43,29.47 -50.66,0 -101.8,-7.83 -148.05,-29.28 -44.08,-20.44 -69.38,-54.83 -70.1,-104.03l0 -164.41 180.15 0zm56.25 166.96c2.25,-7.67 3.43,-15.45 3.33,-23.46 -0.54,-40.72 -8.59,-83.96 -34.73,-116.48 -2.86,-3.56 -5.81,-7.05 -8.84,-10.46l0 126.78c0,8.1 1.82,15.58 5.41,22.82l0.37 0.75 0.27 0.79c2.28,6.77 9.44,7.63 15.73,7.63 7.54,0 14.65,-1.57 18.46,-8.36zm-2.95 -333.12l0 -96.49c0,-8.48 -1.19,-16.82 -3.26,-25.02 -4.12,-5.27 -12.22,-6.63 -18.53,-6.95 -4.93,0.25 -13.88,1.29 -16,6.47l-0.11 0.26c-3.45,7.94 -5.62,16.22 -5.67,24.91 1.97,33.7 11.24,67.69 37.13,90.97l0.19 0.17c2.06,1.93 4.14,3.82 6.25,5.69zm428.56 -118.22l0 127.7 143.5 0 0 119.44 -143.5 0 0 202.31 150.2 0 0 119.59 -346.35 0 0 -688.63 346.35 0 0 119.59 -150.2 0zm1084.31 569.04l-196.15 0 0 -688.63 196.15 0 0 688.63zm-2596.74 -786.33l0 227.11 19.42 0 0.22 0.01c33.38,1.2 49.96,-11.53 49.96,-45.69l0 -135.74c0,-34.03 -17.14,-46.36 -50.16,-45.68l-19.45 0zm610.99 214.11c-4.08,-5.38 -12.16,-6.74 -18.52,-7.06 -5.01,0.25 -13.85,1.26 -15.97,6.56l-0.17 0.39c-3.52,7.97 -5.65,16.43 -5.65,25.18l0 405.68c0,8.09 1.82,15.73 5.41,22.97l0.37 0.75 0.26 0.79c2.28,6.77 9.44,7.63 15.73,7.63 7.54,0 14.65,-1.57 18.46,-8.36 2.26,-7.74 3.33,-15.71 3.33,-23.78l0 -405.68c0,-8.46 -1.17,-16.87 -3.26,-25.07z"/>
   <path fill="#0069B5" fill-rule="nonzero" d="M1561.29 1802.82l0 -429.35c45.1,0 72.56,9.45 82.96,28.35 8.67,19.76 12.14,44.24 11.28,73.67l0 208.99c0,29.85 3.76,53.7 11.28,71.74 6.07,18.9 13.01,34.37 20.81,46.61l241.07 0c-6.65,-17.18 -14.16,-38.23 -22.54,-62.93 -8.96,-23.41 -13.59,-56.7 -13.59,-99.44l0 -181.92c1.16,-52.41 -10.98,-90.64 -36.42,-114.48 -25.15,-23.84 -76.02,-37.37 -152.33,-40.38l0 -2.36c37.87,-2.58 68.8,-8.38 93.08,-17.61 24.28,-9.67 43.65,-21.48 57.81,-35.22 13.58,-14.39 23.99,-29.64 31.22,-45.96 4.63,-17.18 6.65,-34.15 6.65,-50.47l0 -81.19c-0.87,-69.59 -29.19,-118.56 -84.41,-147.13 -55.79,-26.42 -122.27,-39.3 -200.03,-38.44l-284.44 0 0 917.56 237.61 0zm0 -786.33l31.51 0c41.63,-0.86 62.72,18.47 62.72,57.99l0 135.74c0,40.17 -21.1,59.5 -62.72,57.99l-31.51 0 0 -251.73z"/>
   <path id="_1" fill="#0069B5" fill-rule="nonzero" d="M3658.98 1442.63l0 181.71c0,13.96 -2.02,27.06 -5.78,39.31 -7.23,14.61 -21.11,22.12 -41.33,22.12 -20.24,0 -32.96,-7.52 -37.87,-22.12 -6.07,-12.24 -9.25,-25.35 -9.25,-39.31l0 -560.59c0,-13.96 3.18,-27.93 9.25,-41.67 4.91,-12.24 17.63,-18.9 37.87,-19.76 20.23,0.86 34.11,7.52 41.33,19.76 3.76,13.74 5.78,27.7 5.78,41.67l0 144.55 237.04 0 0 -173.98c-0.87,-60.78 -29.2,-104.39 -84.41,-130.59 -55.79,-24.27 -122.27,-36.52 -200.03,-36.52 -75.15,0 -141.06,12.24 -197.43,36.52 -56.66,26.42 -85.85,70.02 -87.02,130.8l0 618.37c1.16,59.5 30.36,102.45 87.02,128.87 56.36,25.99 122.27,39.09 197.43,39.09 77.76,0 144.24,-12.89 200.03,-38.66 55.22,-26.2 83.54,-68.95 84.41,-128.23l0 -211.35 -237.04 0z"/>
   <path id="_2" fill="#0069B5" fill-rule="nonzero" d="M1960.02 1695.11c0.84,42.9 21.96,73.83 62.96,92.79 40.79,18.65 88.48,27.98 142.87,27.98 56.27,0 104.38,-9.48 144.75,-28.29 39.96,-19.12 60.46,-50.2 61.08,-93.26l0 -447.48c-0.63,-43.98 -21.13,-75.54 -61.08,-94.65 -40.37,-17.57 -88.48,-26.43 -144.75,-26.43 -54.39,0 -102.08,8.7 -142.87,26.27 -41,18.96 -62.13,50.2 -62.96,94.04l0 449.04zm240.14 -21.45c0,10.1 -1.46,19.58 -4.18,28.44 -5.23,10.57 -15.27,16.01 -29.92,16.01 -14.64,0 -23.84,-5.44 -27.4,-16.01 -4.39,-8.86 -6.69,-18.34 -6.69,-28.44l0 -405.67c0,-10.11 2.3,-20.21 6.69,-30.15 3.56,-8.86 12.76,-13.68 27.4,-14.3 14.65,0.62 24.69,5.44 29.92,14.3 2.72,9.94 4.18,20.05 4.18,30.15l0 405.67z"/>
   <path id="_3" fill="#0069B5" fill-rule="nonzero" d="M2841.72 1374.77l0 -128.7c-0.84,-43.83 -21.34,-75.07 -61.3,-94.04 -40.37,-17.56 -88.69,-26.27 -144.75,-26.27 -54.6,0 -102.08,8.86 -142.87,26.43 -41.21,19.11 -62.34,50.82 -63.17,94.81l0 83.46c0,18.5 4.18,34.66 12.34,48.34 6.91,14.92 16.11,27.98 27.61,39.17 11.92,10.72 25.11,20.67 39.33,30.15 14.43,9.95 29.08,20.2 44.35,30.62 15.48,9.32 30.74,19.74 46.02,30.93 14.23,11.81 27.41,25.18 39.33,40.1 24.06,29.84 36.61,71.19 37.44,124.03 0,10.1 -1.46,19.43 -4.18,28.29 -5.23,10.57 -15.27,16.01 -29.92,16.01 -14.64,0 -23.85,-5.44 -27.4,-16.01 -4.39,-8.86 -6.69,-18.19 -6.69,-28.29l0 -131.03 -171.53 0 0 152.01c0.62,42.9 21.76,73.83 62.96,92.95 40.58,18.81 88.27,28.13 142.87,28.13 56.06,0 104.38,-9.48 145.17,-28.29 39.54,-19.12 59.82,-50.36 60.66,-93.41l0 -57.98c0,-30.31 -3.34,-56.73 -9.83,-79.27 -7.12,-21.61 -16.32,-40.1 -27.62,-55.65 -11.08,-15.85 -23.84,-29.69 -38.07,-41.5 -15.27,-10.88 -30.33,-21.14 -45.6,-30.62 -15.06,-9.95 -29.7,-20.05 -43.51,-30 -14.43,-9.17 -27.82,-19.58 -40.58,-31.55 -24.89,-22.38 -38.7,-55.65 -41.21,-99.79 0,-10.1 2.3,-20.05 6.69,-30.15 3.56,-8.7 12.76,-13.52 27.41,-14.14 14.64,0.62 24.68,5.44 29.91,14.14 2.72,10.1 4.19,20.05 4.19,30.15l0 106.94 171.95 0z"/>
   <polygon id="_4" fill="#0069B5" fill-rule="nonzero" points="3223.9,1802.82 3223.9,1707.85 3073.71,1707.85 3073.71,1480.93 3217.2,1480.93 3217.2,1386.11 3073.71,1386.11 3073.71,1233.79 3223.9,1233.79 3223.9,1138.82 2902.18,1138.82 2902.18,1802.82 "/>
   <polygon id="_5" fill="#0069B5" fill-rule="nonzero" points="4158.02,1802.82 4158.02,1138.82 3986.49,1138.82 3986.49,1802.82 "/>
   <polygon id="_6" fill="#0069B5" fill-rule="nonzero" points="4493.33,1233.79 4609.22,1233.79 4609.22,1138.82 4206.55,1138.82 4206.55,1233.79 4321.81,1233.79 4321.81,1802.82 4493.33,1802.82 "/>
   <polygon id="_7" fill="#0069B5" fill-rule="nonzero" points="4767.36,1802.82 4938.89,1802.82 4938.89,1469.89 5070.47,1138.82 4916.09,1138.82 4862.12,1402.43 4859.61,1402.43 4805.02,1138.82 4625.12,1138.82 4767.36,1469.89 "/>
   <path fill="#0092E0" d="M1889.06 1409.64c-5.23,-28.04 -16.2,-49.93 -32.93,-65.6 -25.15,-23.84 -76.02,-37.37 -152.33,-40.38l0 -2.36c37.87,-2.58 68.8,-8.38 93.07,-17.61 24.28,-9.67 43.65,-21.48 57.81,-35.22 13.59,-14.39 23.99,-29.64 31.22,-45.96 4.62,-17.19 6.65,-34.15 6.65,-50.48l0 -81.19c-0.87,-69.59 -29.2,-118.56 -84.41,-147.13 -55.78,-26.42 -122.27,-39.3 -200.03,-38.44l-284.44 0 0 450.67c176.99,28.7 366.18,53.45 565.38,73.72zm3097.86 -60.58c-38.56,5.86 -77.72,11.52 -117.34,17l46.52 -227.24 154.37 0 -83.56 210.24zm-134.34 19.38c-40.12,5.48 -80.85,10.73 -122,15.82l-105.46 -245.44 179.9 0 47.56 229.61zm-359.24 42.43c-56.37,5.67 -113.62,10.94 -171.53,15.89l0 -192.96 -115.26 0 0 -94.97 402.67 0 0 94.97 -115.89 0 0 177.07zm-335.32 28.72c-56.56,4.05 -113.75,7.75 -171.53,11.09l0 -311.85 171.53 0 0 300.76zm-262 16.01c-78.04,3.96 -157.08,7.28 -237.03,9.92l0 -22.88 237.03 0 0 12.96zm-331.27 12.71c-78.4,2.06 -157.67,3.43 -237.61,4.17l0 -437.93c1.16,-60.78 30.35,-104.39 87.01,-130.81 56.37,-24.27 122.27,-36.51 197.43,-36.51 77.76,0 144.24,12.24 200.03,36.51 55.21,26.2 83.54,69.81 84.41,130.59l0 173.98 -237.03 0 0 -144.56c0,-13.96 -2.02,-27.92 -5.78,-41.67 -7.22,-12.24 -21.1,-18.9 -41.33,-19.76 -20.24,0.86 -32.95,7.52 -37.87,19.76 -6.07,13.75 -9.25,27.71 -9.25,41.67l0 404.56zm-347.54 4.77c-6.72,0.01 -13.4,0.06 -20.13,0.06 -99.4,0 -197.72,-1.09 -294.89,-3.13l0 -331.18 321.72 0 0 94.97 -150.19 0 0 152.32 143.5 0 0 86.95zm-436.52 -6.09c-87.51,-2.6 -173.98,-6 -259.24,-10.18 -4.2,-2.91 -8.38,-5.8 -12.54,-8.67 -14.22,-9.48 -27.4,-19.43 -39.32,-30.15 -11.51,-11.19 -20.71,-24.25 -27.61,-39.17 -8.16,-13.68 -12.34,-29.84 -12.34,-48.34l0 -83.46c0.83,-43.99 21.96,-75.7 63.17,-94.81 40.79,-17.56 88.27,-26.43 142.87,-26.43 56.06,0 104.38,8.71 144.76,26.27 39.95,18.96 60.45,50.2 61.29,94.04l0 128.7 -171.95 0 0 -106.94c0,-10.1 -1.46,-20.05 -4.19,-30.15 -5.23,-8.7 -15.27,-13.52 -29.91,-14.15 -14.64,0.62 -23.85,5.44 -27.4,14.15 -4.39,10.1 -6.69,20.05 -6.69,30.15 2.51,44.14 16.31,77.4 41.21,99.79 12.76,11.97 26.15,22.38 40.58,31.55 13.81,9.95 28.45,20.05 43.51,30 15.27,9.48 30.33,19.74 45.6,30.62 2.79,2.31 5.53,4.71 8.2,7.19zm-409 -18.39c-57.79,-3.51 -114.98,-7.37 -171.53,-11.59l0 -169.01c0,-10.1 -1.46,-20.2 -4.19,-30.15 -5.23,-8.86 -15.27,-13.68 -29.91,-14.3 -14.64,0.62 -23.85,5.44 -27.4,14.3 -4.39,9.95 -6.7,20.05 -6.7,30.15l0 163.74c-58.06,-4.67 -115.36,-9.72 -171.95,-15.11l0 -170.55c0.84,-43.83 21.96,-75.07 62.96,-94.04 40.79,-17.56 88.48,-26.27 142.87,-26.27 56.27,0 104.38,8.86 144.76,26.43 39.95,19.12 60.45,50.67 61.08,94.66l0 201.74zm-810.4 -432.09l31.51 0c41.63,-0.86 62.73,18.47 62.73,57.99l0 135.74c0,40.17 -21.1,59.5 -62.73,57.99l-31.51 0 0 -251.73z"/>
  </g>
  <g id="_3135069949680">
   <path fill="#0069B5" d="M1852.94 2203.95c0.84,0.74 1.69,1.47 2.53,2.2l0.34 0.29 0.32 0.31c11.61,11.25 23.48,22.25 35.39,32.85 13.1,10.94 25.83,22.65 38.3,34.61l0.39 0.37 0.36 0.4c13.23,14.79 24.2,31.54 33.48,49.05 10.87,20.52 18.59,42.74 24.15,65.46 6.4,29.95 8.5,61.1 8.5,91.46l0 64.69c-0.68,47.14 -16.16,89.5 -56.8,115.94 -38.83,24.1 -82.55,33.72 -127.77,33.72 -44.63,0 -87.66,-9.7 -125.77,-33.48 -41.56,-25.94 -58.27,-67.49 -58.79,-115.5l0 -183.61 149.51 0c-3.43,-4.42 -7,-8.72 -10.72,-12.89 -11.76,-11.58 -23.93,-22.82 -36.74,-33.22l-0.33 -0.28 -0.32 -0.3c-12.3,-11.28 -24.35,-22.83 -36.68,-34.08 -12.02,-10.96 -23.55,-22.48 -34.09,-35.24 -11.03,-14.42 -19.12,-30.41 -24.98,-47.27 -8.09,-18.55 -11.18,-38.89 -11.18,-59.04l0 -93.07c0.68,-48.35 16.93,-91.31 59.17,-117.67 38.66,-22.41 81.39,-31.47 125.57,-31.47 44.44,0 88.31,8.56 127.22,31.35 41.43,26.46 56.84,69.15 57.52,116.75l0 157.65 -138.57 0zm-34.98 -162.33c-2.4,-4.26 -6.27,-5.71 -11.21,-6.1 -4.17,0.31 -7.75,1.28 -9.11,5.77 -3.08,9.54 -4.86,19.17 -4.9,29.06 1.42,32.93 7.66,71.48 28.06,98.83l0 -98.54c0,-9.76 -1.02,-19.43 -2.83,-29.02zm-20.02 351.95l0 129.3c0,9.17 1.5,18.01 4.67,26.61l0.26 0.71 0.19 0.74c1.35,5.39 3.33,7.08 8.91,7.08 6.07,0 8.99,-2.4 11.13,-7.75 1.98,-8.98 2.98,-18.05 2.89,-27.26 -0.42,-42.57 -6.26,-91.87 -28.06,-129.44zm516.19 -37.66c-17.81,12.67 -37.98,21.21 -59.02,26.91 -22.91,6.2 -46.49,8.97 -70.2,8.97l-11.77 0 0 288.97 -170.71 0 0 -768.04 184.46 0c45.14,-0.67 89.07,8.69 127.77,33.35 43.3,29.92 56.44,80.36 56.9,130.36l0 151.8c-0.47,49.79 -13.91,99.02 -57.43,127.66zm253.94 -309l0 141.28 118.77 0 0 134 -118.77 0 0 224.39 124.31 0 0 134.18 -294.68 0 0 -768.04 294.68 0 0 134.18 -124.31 0zm307.32 0l0 141.28 118.77 0 0 134 -118.77 0 0 224.39 124.31 0 0 134.18 -294.68 0 0 -768.04 294.68 0 0 134.18 -124.31 0zm126.23 633.86l0 -768.04 184.56 0c44.41,0 88.08,8.49 126.88,30.8l0.36 0.2 0.34 0.22c41.05,26.86 56.47,69.96 56.98,117.76l0 470.05c-0.52,47.22 -16.35,89.1 -57.14,115.79 -38.76,23.9 -82.44,33.2 -127.42,33.2l-184.56 0zm810.67 -430.52l26.13 -337.52 175.39 0 -106.25 768.04 -193.73 0 -38.65 -401.69 -43.77 401.69 -189.88 0 -77.48 -768.04 175.69 0 21.26 344.29 37.86 -344.29 184.52 0 28.9 337.52zm390.46 228.81l-41.37 0 -22.16 201.71 -155.67 0 110.57 -768.04 212.98 0 88.63 768.04 -176.71 0 -16.27 -201.71zm291.16 -181.14l-122.97 -385.19 180.5 0 33.98 220.78 33.59 -220.78 158.96 0 -113.7 385.03 0 383.01 -170.37 0 0 -382.85zm-2320.76 -251.01l0 210.88 5.02 0 0.34 0.02c20.31,0.99 22.69,-15.35 22.69,-32.57l0 -145.78c0,-17.44 -2.74,-33.12 -23.18,-32.55l-4.87 0zm999.19 0l0 499.68 14.03 0c6.08,0 9.01,-2.41 11.15,-7.79 2.01,-8.82 2.88,-17.79 2.88,-26.84l0 -430.42c0,-9.6 -0.99,-19.07 -2.82,-28.47 -2.46,-4.41 -6.49,-5.81 -11.64,-6.16l-13.59 0zm1003.45 298.15l16.12 0 -7.21 -114.9 -8.91 114.9z"/>
   <path fill="#0069B5" fill-rule="nonzero" d="M1977.31 2189.76l0 -143.36c-0.69,-48.83 -17.66,-83.63 -50.72,-104.75 -33.42,-19.56 -73.41,-29.26 -119.81,-29.26 -45.19,0 -84.49,9.87 -118.25,29.43 -34.11,21.3 -51.6,56.62 -52.29,105.62l0 92.97c0,20.61 3.46,38.61 10.22,53.85 5.72,16.62 13.33,31.16 22.86,43.63 9.87,11.95 20.78,23.03 32.55,33.59 11.94,11.08 24.07,22.51 36.71,34.11 12.81,10.39 25.45,21.99 38.09,34.45 11.77,13.16 22.68,28.05 32.55,44.67 19.91,33.24 30.3,79.3 30.99,138.16 0,11.26 -1.21,21.65 -3.46,31.52 -4.32,11.77 -12.63,17.83 -24.76,17.83 -12.12,0 -19.74,-6.06 -22.69,-17.83 -3.63,-9.87 -5.54,-20.26 -5.54,-31.52l0 -145.96 -141.98 0 0 169.33c0.52,47.79 18.01,82.24 52.11,103.54 33.59,20.95 73.07,31.33 118.26,31.33 46.4,0 86.4,-10.56 120.16,-31.51 32.72,-21.3 49.52,-56.09 50.21,-104.06l0 -64.59c0,-33.76 -2.77,-63.19 -8.13,-88.3 -5.89,-24.07 -13.51,-44.67 -22.86,-61.99 -9.18,-17.66 -19.74,-33.07 -31.51,-46.23 -12.63,-12.12 -25.1,-23.54 -37.74,-34.1 -12.46,-11.08 -24.58,-22.34 -36.01,-33.42 -11.95,-10.22 -23.02,-21.81 -33.59,-35.15 -20.61,-24.93 -32.03,-61.98 -34.11,-111.15 0,-11.25 1.91,-22.33 5.54,-33.59 2.94,-9.7 10.56,-15.06 22.68,-15.75 12.12,0.69 20.43,6.06 24.76,15.75 2.26,11.26 3.46,22.34 3.46,33.59l0 119.12 142.32 0zm181.63 -157.04l18.87 0c24.93,-0.69 37.57,14.89 37.57,46.75l0 145.78c0,32.38 -12.64,47.96 -37.57,46.75l-18.87 0 0 -239.28zm0 633.86l0 -288.97 25.97 0c23.38,0 45.54,-2.77 66.49,-8.48 20.6,-5.54 38.96,-13.67 54.71,-24.93 33.59,-21.99 50.73,-60.6 51.25,-116l0 -151.67c-0.52,-56.1 -17.49,-95.75 -50.56,-118.6 -33.41,-21.29 -73.24,-31.68 -119.81,-30.99l-170.37 0 0 739.65 142.32 0zm519.25 0l0 -105.79 -124.31 0 0 -252.78 118.77 0 0 -105.61 -118.77 0 0 -169.68 124.31 0 0 -105.79 -266.29 0 0 739.65 266.29 0zm307.32 0l0 -105.79 -124.31 0 0 -252.78 118.77 0 0 -105.61 -118.77 0 0 -169.68 124.31 0 0 -105.79 -266.29 0 0 739.65 266.29 0zm30.3 0l170.37 0c46.57,0 86.39,-10.39 119.81,-31 33.07,-21.64 50.04,-56.27 50.56,-103.88l0 -469.9c-0.52,-48.99 -17.48,-84.32 -50.56,-105.96 -33.41,-19.22 -73.24,-28.91 -119.81,-28.91l-170.37 0 0 739.65zm142.32 -633.86l28.22 0c12.12,0.69 20.43,6.06 24.76,15.76 2.25,10.91 3.46,21.81 3.46,33.07l0 430.42c0,11.26 -1.21,21.47 -3.46,31 -4.33,11.78 -12.64,17.83 -24.76,17.83l-28.22 0 0 -528.07zm453.46 -105.79l-53.33 484.96 -1.91 0 -29.95 -484.96 -146.65 0 74.62 739.65 164.31 0 56.27 -516.48 2.08 0 49.69 516.48 168.47 0 102.33 -739.65 -145.96 0 -37.57 485.31 -2.07 0 -41.56 -485.31 -158.77 0zm548.85 432.32l23.54 -303.51 3.99 0 19.04 303.51 -46.57 0zm-160.5 307.33l126.57 0 22.17 -201.71 67.18 0 16.27 201.71 147.69 0 -85.36 -739.65 -188.04 0 -106.48 739.65zm508.17 0l141.98 0 0 -370.87 108.9 -368.78 -127.78 0 -44.67 293.64 -2.08 0 -45.19 -293.64 -148.9 0 117.73 368.78 0 370.87z"/>
   <path fill="#0092E0" fill-rule="nonzero" d="M1977.31 2189.76l0 -143.36c-0.69,-48.83 -17.66,-83.63 -50.72,-104.75 -33.42,-19.56 -73.41,-29.26 -119.81,-29.26 -45.19,0 -84.49,9.87 -118.25,29.43 -34.11,21.3 -51.6,56.62 -52.29,105.62l0 92.97c0,17.7 2.56,33.49 7.56,47.25 72.02,22.67 151.97,43.7 238.7,62.89l-0.24 -0.19c-12.46,-11.08 -24.58,-22.34 -36.01,-33.42 -11.95,-10.22 -23.02,-21.81 -33.59,-35.15 -20.61,-24.93 -32.03,-61.98 -34.11,-111.15 0,-11.25 1.91,-22.33 5.54,-33.59 2.94,-9.7 10.56,-15.06 22.68,-15.75 12.12,0.69 20.43,6.06 24.76,15.75 2.26,11.26 3.46,22.34 3.46,33.59l0 119.12 142.32 0zm1237.26 185.07c47.74,-0.11 95.09,-0.6 141.97,-1.52l0 -311.5c-0.52,-48.99 -17.48,-84.32 -50.56,-105.96 -33.41,-19.22 -73.24,-28.91 -119.81,-28.91l-170.37 0 0 445.87c46.99,1.07 94.45,1.72 142.32,1.96l0 -342.04 28.22 0c12.12,0.69 20.43,6.06 24.76,15.76 2.25,10.91 3.46,21.81 3.46,33.07l0 293.28zm210.04 -3.19c43.42,-1.23 86.44,-2.79 128.96,-4.7l-27.17 -440 -146.65 0 44.86 444.71zm138.64 -5.17c29.78,-1.38 59.34,-2.92 88.63,-4.63l23.07 -211.74 2.08 0 20.1 208.97c36.96,-2.39 73.46,-5.06 109.54,-7.96l-36.32 -424.18 -158.77 0 -48.33 439.54zm255.54 -16.33c41.19,-3.39 81.78,-7.09 121.72,-11.11l57.01 -412.09 -145.96 0 -32.76 423.2zm230 -22.95c39.17,-4.64 77.59,-9.62 115.29,-14.87l19.9 -256.57 3.99 0 15.74 250.9c45.22,-6.64 89.3,-13.71 132.11,-21.21l-41.37 -358.5 -188.04 0 -57.62 400.25zm446.14 -72.72c63.88,-13.8 124.11,-28.62 180.41,-44.31l83.64 -283.22 -127.78 0 -44.67 293.64 -2.08 0 -45.19 -293.64 -148.9 0 104.57 327.54zm-2478.31 23.28c97.24,18 201.43,33.81 311.28,47.19 19.22,-22.75 29.06,-54.98 29.45,-96.75l0 -151.67c-0.52,-56.1 -17.49,-95.75 -50.56,-118.6 -33.41,-21.29 -73.24,-31.68 -119.81,-30.99l-170.37 0 0 350.82zm395.28 56.81c46.43,5 93.77,9.57 141.97,13.69l0 -40.25 118.77 0 0 -105.61 -118.77 0 0 -169.68 124.31 0 0 -105.79 -266.29 0 0 407.63zm307.32 25.82c46.7,2.88 94.04,5.35 141.97,7.39l0 -59.76 118.77 0 0 -105.61 -118.77 0 0 -169.68 124.31 0 0 -105.79 -266.29 0 0 433.45zm-560.28 -327.67l18.87 0c24.93,-0.69 37.57,14.89 37.57,46.75l0 145.78c0,32.38 -12.64,47.96 -37.57,46.75l-18.87 0 0 -239.28z"/>
  </g>
 </g>
</svg>
