<?xml version="1.0" encoding="UTF-8"?>
<!DOCTYPE svg PUBLIC "-//W3C//DTD SVG 1.0//EN" "http://www.w3.org/TR/2001/REC-SVG-20010904/DTD/svg10.dtd">
<!-- Creator: CorelDRAW -->
<svg xmlns="http://www.w3.org/2000/svg" xml:space="preserve" width="6.39999in" height="3.59999in" version="1.0" shape-rendering="geometricPrecision" text-rendering="geometricPrecision" image-rendering="optimizeQuality" fill-rule="evenodd" clip-rule="evenodd"
viewBox="0 0 6399.99 3599.99"
 xmlns:xlink="http://www.w3.org/1999/xlink"
 xmlns:xodm="http://www.corel.com/coreldraw/odm/2003">
 <g id="Layer_x0020_1">
  <metadata id="CorelCorpID_0Corel-Layer"/>
  <path fill="#231F20" fill-rule="nonzero" d="M4131.19 2579.74l-1616.35 0c-108.96,0 -197.29,-88.33 -197.29,-197.29l0 -628.75c37.29,-57.5 74.58,-115 111.87,-172.4 -45.94,-58.02 -91.77,-116.04 -137.71,-174.06 70.21,18.65 140.42,37.29 210.63,55.94 7.5,-11.98 15.1,-24.06 22.6,-36.04 50.94,-80.83 102.29,-160.21 154.06,-238.23l1452.09 0c108.96,0 197.29,88.33 197.29,197.29l0 996.25c0.1,108.96 -88.23,197.29 -197.19,197.29z"/>
  <path fill="white" fill-rule="nonzero" d="M4318.59 1386.92l0 961.15c0,104.17 -84.48,188.65 -188.65,188.65l-1613.85 0c-104.17,0 -188.65,-84.48 -188.65,-188.65l0 -517.5 -241.25 155 254.06 -395.21 -261.77 -320.73 400.31 105.73 224.17 -348.13 9.58 170.94 1417.4 0c104.17,0 188.65,84.58 188.65,188.75z"/>
  <polygon fill="#007FC7" fill-rule="nonzero" points="2879.22,1519.32 2630.05,1517.96 2619.94,1337.96 2522.34,1489.53 2347.96,1443.48 2461.92,1583.17 2364.32,1734.74 2475.05,1691.82 2327.34,1786.61 2208.8,1862.86 2327.34,1678.8 2385.88,1587.96 2327.34,1516.3 2179.11,1334.63 2327.76,1373.9 2495.26,1418.07 2636.82,1198.17 2672.34,1143.17 2675.46,1198.17 2690.67,1469.63 "/>
  <rect fill="#231F20" fill-rule="nonzero" x="2546.71" y="2183.07" width="1553.13" height="9.69"/>
  <g id="_1758901533968">
   <path fill="#231F20" fill-rule="nonzero" d="M2546.09 1827.55l0 -231.56 65.31 0c25.63,0 43.44,1.15 53.54,3.54 10.1,2.4 18.75,6.35 26.15,11.98 8.23,6.35 14.58,14.37 19.06,24.17 4.48,9.79 6.67,20.63 6.67,32.4 0,17.92 -3.13,30.83 -11.87,42.08 -8.75,11.25 -20.94,19.06 -37.71,22.81l71.77 94.58 -74.27 0 -58.23 -90.63 0 90.63 -60.42 0zm60.42 -127.5l9.79 0c36.67,0 39.58,-19.58 39.58,-29.58 0,-11.56 -5.63,-28.65 -38.65,-28.65l-10.73 0 0 58.23z"/>
   <polygon fill="#231F20" fill-rule="nonzero" points="2770.26,1827.55 2770.26,1595.98 2902.76,1595.98 2902.76,1646.71 2830.57,1646.72 2830.57,1686.93 2898.28,1686.92 2898.28,1736.61 2830.57,1736.61 2830.57,1775.67 2902.76,1775.67 2902.76,1827.55 "/>
   <path fill="#231F20" fill-rule="nonzero" d="M3612.13 1827.55l0 -231.56 65.31 0c25.63,0 43.44,1.15 53.54,3.54 10.1,2.4 18.75,6.35 26.15,11.98 8.23,6.35 14.58,14.37 19.06,24.17 4.48,9.79 6.67,20.63 6.67,32.4 0,17.92 -3.13,30.83 -11.87,42.08 -8.75,11.25 -20.94,19.06 -37.71,22.81l71.77 94.58 -74.28 0 -58.23 -90.63 0 90.63 -60.42 0zm60.31 -127.5l9.79 0c36.67,0 39.58,-19.58 39.58,-29.58 0,-11.56 -5.63,-28.65 -38.65,-28.65l-10.73 0 0 58.23z"/>
   <polygon fill="#231F20" fill-rule="nonzero" points="3431.82,1827.55 3431.82,1595.98 3564.32,1595.98 3564.32,1646.71 3492.13,1646.72 3492.13,1686.93 3559.84,1686.92 3559.84,1736.61 3492.13,1736.61 3492.13,1775.67 3564.32,1775.67 3564.32,1827.55 "/>
   <path fill="#231F20" fill-rule="nonzero" d="M2928.8 1827.55l89.27 -231.56 63.44 0 88.65 231.56 -63.44 0 -13.75 -41.46 -86.25 0 -14.58 41.46 -63.33 0zm94.17 -86.46l54.37 0c0,0 0,0 -27.6,-77.92 -26.77,77.92 -26.77,77.92 -26.77,77.92z"/>
   <path fill="#231F20" fill-rule="nonzero" d="M3202.34 1827.55l0 -231.56 47.19 0c35.1,0 60,1.67 74.58,5.1 14.58,3.33 27.4,9.06 38.44,16.87 14.37,10.21 25.21,23.33 32.6,39.27 7.4,15.94 11.15,34.17 11.15,54.69 0,20.42 -3.75,38.65 -11.15,54.69 -7.4,15.94 -18.33,29.06 -32.6,39.27 -10.94,7.81 -23.44,13.33 -37.4,16.67 -14.06,3.33 -35.73,5 -65.21,5l-10.31 0 -47.29 0zm61.04 -51.87l10.31 0c24.27,0 41.87,-5.1 53.02,-15.31 11.15,-10.21 16.67,-26.35 16.67,-48.44 0,-22.19 -5.52,-38.44 -16.67,-48.75 -11.15,-10.31 -28.85,-15.52 -53.02,-15.52l-10.31 0 0 128.02z"/>
   <path fill="#231F20" fill-rule="nonzero" d="M3849.94 1752.76c9.48,10.63 18.85,18.65 28.13,23.85 9.27,5.31 18.44,7.92 27.6,7.92 8.54,0 15.52,-2.29 21.04,-6.77 5.52,-4.58 8.23,-10.31 8.23,-17.29 0,-7.71 -2.4,-13.65 -7.08,-17.81 -4.79,-4.17 -15.52,-8.44 -32.19,-12.92 -22.92,-6.15 -39.17,-14.06 -48.65,-23.85 -9.48,-9.79 -14.27,-23.23 -14.27,-40.31 0,-22.19 7.5,-40.21 22.5,-54.17 15,-13.96 34.37,-20.94 58.33,-20.94 12.92,0 25.1,1.67 36.67,5.1 11.56,3.44 22.5,8.65 32.92,15.63l-20 45.42c-7.29,-6.15 -14.69,-10.73 -22.29,-13.85 -7.6,-3.13 -15.21,-4.69 -22.6,-4.69 -7.71,0 -13.96,1.77 -18.75,5.42 -4.8,3.65 -7.19,8.33 -7.19,13.96 0,5.83 2.08,10.42 6.35,13.96 4.17,3.44 12.29,6.77 24.37,10l2.92 0.83c26.04,6.98 43.13,14.58 51.35,22.92 5.52,5.73 9.79,12.5 12.6,20.52 2.92,7.92 4.27,16.77 4.27,26.46 0,24.58 -8.13,44.27 -24.48,59.27 -16.35,14.9 -38.02,22.4 -65.31,22.4 -16.35,0 -31.15,-2.71 -44.58,-8.23 -13.33,-5.52 -26.25,-14.06 -38.65,-25.83l28.75 -46.98z"/>
   <polygon fill="#231F20" fill-rule="nonzero" points="4044.53,1595.98 4097.65,1595.98 4040.99,1697.76 4005.67,1697.76 "/>
  </g>
  <g id="_1758901535792">
   <path fill="#231F20" fill-rule="nonzero" d="M2672.13 1897.96l0 56.25c-7.08,-7.81 -14.06,-13.54 -21.04,-17.19 -6.98,-3.65 -14.48,-5.52 -22.5,-5.52 -14.79,0 -26.77,5.1 -35.94,15.21 -9.17,10.1 -13.75,23.33 -13.75,39.58 0,15.1 4.69,27.71 13.96,37.71 9.37,10 21.25,15 35.63,15 8.02,0 15.52,-1.87 22.5,-5.52 6.98,-3.65 14.06,-9.48 21.04,-17.4l0 56.35c-8.13,3.96 -16.25,6.87 -24.37,8.85 -8.13,1.98 -16.25,2.92 -24.48,2.92 -10.31,0 -19.9,-1.25 -28.54,-3.65 -8.75,-2.5 -16.77,-6.15 -24.06,-11.15 -14.06,-9.48 -24.9,-21.35 -32.29,-35.73 -7.4,-14.37 -11.15,-30.52 -11.15,-48.54 0,-14.48 2.29,-27.6 6.98,-39.37 4.69,-11.87 11.77,-22.6 21.25,-32.19 8.96,-9.17 19.06,-16.04 30.21,-20.63 11.15,-4.58 23.75,-6.87 37.5,-6.87 8.23,0 16.46,1.04 24.48,2.92 8.33,1.98 16.46,5 24.58,8.96z"/>
   <polygon fill="#231F20" fill-rule="nonzero" points="2703.07,2079.42 2703.07,1890.57 2754.53,1890.57 2754.53,1964.01 2823.17,1964.01 2823.17,1890.57 2874.74,1890.57 2874.74,2079.43 2823.17,2079.42 2823.17,2002.55 2754.53,2002.55 2754.53,2079.42 "/>
   <path fill="#231F20" fill-rule="nonzero" d="M3102.96 1984.42c0,55.1 -46.87,99.79 -104.79,99.79 -57.92,0 -104.79,-44.69 -104.79,-99.79 0,-55.1 46.87,-99.79 104.79,-99.79 57.92,0 104.79,44.69 104.79,99.79zm-104.79 -52.39c-29.58,0 -53.54,23.44 -53.54,52.4 0,28.96 23.96,52.4 53.54,52.4 29.58,0 53.54,-23.44 53.54,-52.4 0,-28.96 -23.96,-52.4 -53.54,-52.4z"/>
   <polygon fill="#231F20" fill-rule="nonzero" points="3121.4,2079.42 3121.4,1890.57 3170.26,1890.57 3170.26,2079.43 "/>
   <path fill="#231F20" fill-rule="nonzero" d="M3333.9 1897.96l0 56.25c-7.08,-7.81 -14.06,-13.54 -21.15,-17.19 -6.98,-3.65 -14.48,-5.52 -22.5,-5.52 -14.79,0 -26.77,5.1 -35.94,15.21 -9.17,10.1 -13.75,23.33 -13.75,39.58 0,15.1 4.69,27.71 13.96,37.71 9.37,10 21.25,15 35.63,15 8.02,0 15.52,-1.87 22.5,-5.52 6.98,-3.65 14.06,-9.48 21.15,-17.4l0 56.35c-8.13,3.96 -16.25,6.87 -24.37,8.85 -8.13,1.98 -16.25,2.92 -24.48,2.92 -10.31,0 -19.9,-1.25 -28.54,-3.65 -8.75,-2.5 -16.77,-6.15 -24.06,-11.15 -14.06,-9.48 -24.9,-21.35 -32.29,-35.73 -7.4,-14.37 -11.15,-30.52 -11.15,-48.54 0,-14.48 2.29,-27.6 6.98,-39.37 4.69,-11.87 11.77,-22.6 21.25,-32.19 8.96,-9.17 19.06,-16.04 30.21,-20.63 11.25,-4.58 23.75,-6.87 37.5,-6.87 8.23,0 16.46,1.04 24.48,2.92 8.23,1.98 16.35,5 24.58,8.96z"/>
   <polygon fill="#231F20" fill-rule="nonzero" points="3352.34,2079.42 3352.34,1890.57 3460.26,1890.57 3460.26,1932.03 3400.46,1932.03 3400.46,1964.74 3456.72,1964.74 3456.72,2005.26 3400.46,2005.26 3400.46,2037.13 3460.26,2037.13 3460.26,2079.42 "/>
  </g>
  <path fill="black" fill-rule="nonzero" d="M2599.5 2349.02l9.89 0c10.78,0 19.33,-0.31 26.42,-5.55 6.5,-4.94 10.63,-14.19 10.63,-24.83 0,-10.64 -4.13,-19.74 -10.63,-24.68 -7.08,-5.4 -15.64,-5.7 -26.42,-5.7l-25.97 0 0 110.27 16.09 0 0 -49.51zm1.03 -14.65l0 -30.69 4.43 0c15.94,0 23.76,2.78 23.76,16.04 0,12.8 -7.97,14.65 -23.76,14.65l-4.43 0z"/>
  <polygon id="_1" fill="black" fill-rule="nonzero" points="2661.93,2398.53 2717.42,2398.53 2717.42,2382.49 2679.05,2382.49 2679.05,2288.26 2661.93,2288.26 "/>
  <path id="_2" fill="black" fill-rule="nonzero" d="M2800.95 2398.53l18.15 0 -51.06 -114.59 -51.06 114.59 18.01 0 12.24 -28.38 41.77 0 11.95 28.38zm-47.37 -43.34l10.77 -25.14c1.18,-2.93 2.51,-6.94 3.84,-12.49 1.48,5.55 2.8,9.56 3.98,12.49l10.78 25.14 -29.37 0z"/>
  <polygon id="_3" fill="black" fill-rule="nonzero" points="2854.82,2303.53 2882.71,2303.53 2882.71,2288.26 2809.66,2288.26 2809.66,2303.53 2837.7,2303.53 2837.7,2398.53 2854.82,2398.53 "/>
  <polygon id="_4" fill="black" fill-rule="nonzero" points="2896.15,2398.53 2913.26,2398.53 2913.26,2288.26 2896.15,2288.26 "/>
  <path id="_5" fill="black" fill-rule="nonzero" d="M2937.91 2398.53l15.79 0 0 -76.65c2.95,4.31 6.35,8.48 10.19,12.33l68.33 68.63 0 -114.59 -15.79 0 0 76.5c-3.54,-4.63 -7.24,-9.1 -11.52,-13.42l-67 -67.4 0 114.59z"/>
  <path id="_6" fill="black" fill-rule="nonzero" d="M3055.98 2288.26l0 68.63c0,29.77 14.17,44.57 43.24,44.57 29.07,0 43.39,-14.8 43.39,-44.57l0 -68.63 -17.12 0 0 66.93c0,19.9 -8.86,29.92 -26.27,29.92 -17.42,0 -26.27,-10.02 -26.27,-29.92l0 -66.93 -16.97 0z"/>
  <path id="_7" fill="black" fill-rule="nonzero" d="M3252.26 2344.09l11.65 54.44 15.94 0 -25.53 -114.59 -30.4 69.25c-1.63,3.85 -3.98,8.79 -6.05,14.96 -2.95,-8.02 -4.87,-12.96 -5.76,-14.96l-31.14 -69.25 -24.94 114.59 15.79 0 11.36 -54.29c1.03,-4.94 1.77,-10.03 1.92,-15.27 1.33,4.93 3.09,9.56 5.17,14.03l27.59 60 27.6 -58.76c2.36,-5.09 3.98,-10.03 4.87,-15.27 1.04,8.17 1.48,13.11 1.92,15.11z"/>
  <path id="_8" fill="black" fill-rule="nonzero" d="M3325.61 2288.26l40.74 114.59 23.61 -62.62c1.92,-5.09 3.55,-10.33 5.02,-15.73 1.33,4.78 3.1,10.03 5.17,15.43l24.06 62.93 40.88 -114.59 -17.12 0 -19.78 56.14c-2.21,6.32 -3.98,11.87 -5.17,17.12 -1.77,-6.48 -3.69,-12.34 -5.61,-17.58l-22.29 -59.99 -21.25 58.91c-0.59,1.85 -2.65,7.87 -5.75,18.51 -1.62,-5.86 -3.54,-11.57 -5.61,-17.43l-19.93 -55.67 -16.97 0z"/>
  <polygon id="_9" fill="black" fill-rule="nonzero" points="3477.02,2398.53 3494.14,2398.53 3494.14,2288.26 3477.02,2288.26 "/>
  <path id="_10" fill="black" fill-rule="nonzero" d="M3518.79 2398.53l15.8 0 0 -76.65c2.95,4.31 6.34,8.48 10.18,12.33l68.33 68.63 0 -114.59 -15.79 0 0 76.5c-3.54,-4.63 -7.23,-9.1 -11.51,-13.42l-67 -67.4 0 114.59z"/>
  <path id="_11" fill="black" fill-rule="nonzero" d="M3637.3 2398.53l15.79 0 0 -76.65c2.95,4.31 6.34,8.48 10.18,12.33l68.33 68.63 0 -114.59 -15.79 0 0 76.5c-3.54,-4.63 -7.23,-9.1 -11.51,-13.42l-67 -67.4 0 114.59z"/>
  <polygon id="_12" fill="black" fill-rule="nonzero" points="3755.81,2398.53 3814.69,2398.53 3814.69,2382.49 3772.93,2382.49 3772.93,2346.87 3814.69,2346.87 3814.69,2331.13 3772.93,2331.13 3772.93,2303.53 3814.69,2303.53 3814.69,2288.26 3755.81,2288.26 "/>
  <path id="_13" fill="black" fill-rule="nonzero" d="M3850.41 2349.18l1.92 0 35.13 49.35 19.33 0 -36.31 -50.13c15.94,-2 24.2,-12.03 24.2,-29.76 0,-10.33 -3.83,-18.97 -10.18,-24.21 -6.49,-5.24 -14.91,-6.17 -26.27,-6.17l-23.91 0 0 110.27 16.09 0 0 -49.35zm1.03 -13.88l0 -31.62 3.1 0c15.35,0 22.58,2.93 22.58,16.5 0,13.26 -7.53,15.11 -22.58,15.11l-3.1 0z"/>
  <path fill="#231F20" fill-rule="nonzero" d="M3646.72 2055.65l-76.96 0 25.74 -30.12c30.84,-35.86 50.93,-61.39 50.93,-93.52 0,-35 -24.05,-56.8 -63.09,-56.8 -41.31,0 -67.33,23.81 -67.33,60.53l31.69 0c1.42,-19.22 14.43,-31.85 32.82,-31.85 20.93,0 33.39,12.63 33.39,32.71 0,14.92 -9.34,32.13 -27.17,53.93l-75.54 91.8 135.52 0 0 -26.68z"/>
  <path id="_1_0" fill="#231F20" fill-rule="nonzero" d="M3729.9 2059.09c-24.9,0 -39.33,-26.97 -39.33,-77.46 0,-51.64 13.86,-78.03 40.46,-78.03 25.46,0 39.33,26.68 39.33,77.46 0,51.93 -13.58,78.04 -40.46,78.04zm73.28 -75.45c0,-70.57 -26.59,-108.44 -72.43,-108.44 -45.27,0 -73,38.44 -73,106.15 0,68.28 27.44,106.44 72.71,106.44 44.7,0 72.71,-38.16 72.71,-104.14z"/>
  <path fill="#231F20" fill-rule="nonzero" d="M3941.53 2055.65l-76.96 0 25.74 -30.12c30.84,-35.86 50.93,-61.39 50.93,-93.52 0,-35 -24.05,-56.8 -63.09,-56.8 -41.31,0 -67.33,23.81 -67.33,60.53l31.69 0c1.42,-19.22 14.43,-31.85 32.82,-31.85 20.93,0 33.39,12.63 33.39,32.71 0,14.92 -9.34,32.13 -27.17,53.93l-75.54 91.8 135.52 0 0 -26.68z"/>
  <path id="_1_1" fill="#231F20" fill-rule="nonzero" d="M4081.29 2055.65l-76.96 0 25.74 -30.12c30.84,-35.86 50.93,-61.39 50.93,-93.52 0,-35 -24.05,-56.8 -63.09,-56.8 -41.31,0 -67.34,23.81 -67.34,60.53l31.69 0c1.42,-19.22 14.43,-31.85 32.82,-31.85 20.93,0 33.39,12.63 33.39,32.71 0,14.92 -9.34,32.13 -27.16,53.93l-75.54 91.8 135.52 0 0 -26.68z"/>
  <g id="_1758901532096">
   <path fill="#231F20" fill-rule="nonzero" d="M3412.96 1381.4l0 -7.08 -76.67 0 0 7.08c15.42,0 20.73,4.69 20.73,19.69l0 103.13c0,15 -6.87,19.69 -22.29,19.69 -18.44,-1.25 -25.63,-14.48 -33.54,-29.06l-11.56 -23.13c-3.65,-7.08 -7.08,-14.58 -13.75,-19.06 20.52,-3.85 41.25,-15 41.25,-38.54 0,-22.71 -19.48,-39.79 -51.15,-39.79l-92.08 0 0 7.08c15.42,0 20.73,4.69 20.73,19.69l0 103.13c0,15 -5.31,19.69 -20.73,19.69l0 7.08 76.67 -0 0 -7.08c-15.42,0 -20.73,-4.69 -20.73,-19.69l0 -47.92c8.96,0 17.29,2.4 30.21,30l12.6 26.77c3.02,6.04 5.63,12.4 9.27,18.02l131.04 0 0 -7.08c-15.42,0 -20.73,-4.69 -20.73,-19.69l0 -103.13c0,-15.1 5.31,-19.79 20.73,-19.79zm-178.96 64.79l-4.06 0 0 -46.04c0,-12.19 0.63,-17.5 14.79,-17.5 22.92,0 35.31,7.71 35.31,29.27 0,22.71 -10.73,34.27 -46.04,34.27z"/>
   <path fill="#231F20" fill-rule="nonzero" d="M3416.61 1530.98l0 -7.08c15.42,0 20.73,-4.69 20.73,-19.69l0 -103.13c0,-15 -5.31,-19.69 -20.73,-19.69l0 -7.08 77.71 0c54.58,0 66.56,16.87 66.56,35.94 0,22.08 -22.5,32.29 -41.15,36.15l0 0.42c23.75,4.69 48.13,13.44 48.13,42.4 0,25.21 -18.44,41.77 -60.1,41.77l-91.15 -0zm68.13 -88.85c26.98,0 38.96,-8.96 38.96,-31.25 0,-22.29 -13.02,-29.58 -33.65,-29.58 -4.9,0 -11.56,0.63 -15,4.06 -2.81,3.23 -2.6,7.71 -2.6,11.56l0 45.21 12.29 0zm-12.19 55.21c0,18.44 -0.42,26.56 21.67,26.56 20.94,0 36.56,-10.31 36.56,-37.92 0,-19.06 -6.67,-33.85 -45.83,-33.85l-12.39 0 0 45.21z"/>
   <path fill="#231F20" fill-rule="nonzero" d="M3617.65 1476.4c-0.63,38.75 11.77,50.1 34.9,50.1 31.04,0 40.63,-19.06 40.63,-50.31l0 -75.1c0,-15 -5.31,-19.69 -20.73,-19.69l0 -7.08 52.6 0 0 7.08c-15.42,0 -20.73,4.69 -20.73,19.69l0 76.87c0,37.29 -16.25,56.98 -58.02,56.98 -42.6,0 -63.75,-19.27 -63.75,-52.4l0 -81.35c0,-15 -5.31,-19.69 -20.73,-19.69l0 -7.08 76.67 0 0 6.98c-15.42,0 -20.73,4.69 -20.73,19.69l0 75.31 -0.1 0z"/>
   <path fill="#231F20" fill-rule="nonzero" d="M3859.01 1483.28l0 -71.46c0,-18.23 -1.67,-28.44 -22.92,-30.42l0 -7.08 56.25 0 0 7.08c-20.31,3.44 -22.29,11.56 -22.29,30.42l0 119.27 -19.48 0 -86.04 -121.77 0 82.19c0,23.33 2.6,27.81 25,32.5l0 7.08 -60.63 0 0 -7.08c20.52,-3.23 24.37,-9.58 24.37,-29.27l0 -98.44c-6.04,-7.5 -15,-12.81 -24.37,-14.79l0 -7.08 54.37 -0 75.73 108.85z"/>
   <path fill="#231F20" fill-rule="nonzero" d="M3896.19 1523.9c15.42,0 20.73,-4.69 20.73,-19.69l0 -103.13c0,-15 -5.31,-19.69 -20.73,-19.69l0 -7.08 129.06 0 13.44 40 -6.67 2.81c-14.37,-18.65 -36.56,-34.48 -61.04,-34.48 -19.06,0 -19.06,6.46 -19.06,22.29l0 41.77 4.27 0c21.35,0 30.83,-3.65 38.13,-25.21l8.33 0 0 61.87 -8.33 0c-5.73,-21.67 -16.67,-26.56 -37.71,-26.56l-4.69 0 0 45.21c0,12.4 1.25,20.73 16.46,20.73 26.56,0 50.31,-15 66.98,-34.48l5.73 3.02 -16.04 39.79 -129.06 0 0 -7.19 0.21 0z"/>
  </g>
  <path fill="#007FC7" fill-rule="nonzero" d="M3174.11 1291.72l0 106.87 -13.44 -49.79 -149.17 0 -12.19 49.79 9.27 2.5c13.23,-20.1 32.6,-39.58 57.5,-42.6l0 141.35c0,17.4 -6.25,22.92 -24.17,22.92l0 8.23 -107.09 -0 0 -239.27 239.27 0z"/>
  <path fill="#007FC7" fill-rule="nonzero" d="M3164.84 1400.98l9.27 -2.5 0 132.4 -43.13 0 0 -8.23c-17.92,0 -24.17,-5.52 -24.17,-22.92l0 -141.25c23.96,0.52 46.04,23.85 58.02,42.5z"/>
  <g id="_1758901514192">
   <path fill="#231F20" fill-rule="nonzero" d="M3233.48 1292.13l0 2.81c-2.6,0.21 -5,0.52 -5,3.75 0,1.77 1.04,5 1.56,6.77l9.9 30.52 9.27 -27.92 -1.67 -5.21 -0.73 -1.67c-1.35,-3.96 -3.02,-5.94 -7.29,-6.25l0 -2.81 26.66 0 0 2.81c-2.6,0.1 -5.31,0.63 -5.31,3.85 0,1.35 0.63,2.92 0.94,4.17l10.94 33.54 10.42 -31.15c0.52,-1.56 1.04,-3.13 1.04,-4.79 0,-4.27 -3.75,-5.73 -7.4,-5.73l0 -2.81 20.42 0 0 2.81c-4.48,0.94 -6.46,0.73 -10.94,14.17l-15.21 46.35 -5.83 0 -13.85 -40.52 -13.44 40.52 -5.94 0 -16.87 -52.5c-1.67,-4.9 -2.08,-7.29 -7.81,-8.02l0 -2.81 26.14 -0 0 0.1z"/>
   <path fill="#231F20" fill-rule="nonzero" d="M3297.55 1351.51c6.15,0 8.23,-1.87 8.23,-7.81l0 -40.94c0,-5.94 -2.08,-7.81 -8.23,-7.81l0 -2.81 51.25 -0.01 5.31 15.94 -2.6 1.15c-5.73,-7.4 -14.58,-13.65 -24.27,-13.65 -7.6,0 -7.6,2.5 -7.6,8.85l0 16.56 1.67 0c8.54,0 12.29,-1.46 15.1,-10l3.33 0 0 24.58 -3.33 0c-2.29,-8.54 -6.67,-10.52 -15,-10.52l-1.87 -0 0 17.92c0,4.9 0.52,8.23 6.56,8.23 10.52,0 20,-5.94 26.56,-13.65l2.29 1.15 -6.35 15.83 -51.25 0 0 -3.02 0.21 0z"/>
   <path fill="#231F20" fill-rule="nonzero" d="M3355.15 1351.51c6.15,0 8.23,-1.87 8.23,-7.81l0 -40.94c0,-5.94 -2.08,-7.81 -8.23,-7.81l0 -2.81 30.42 -0.01 0 2.81c-6.15,0 -8.23,1.87 -8.23,7.81l0 40.94c0,5.1 0.1,7.29 6.35,7.29 10.42,0 19.27,-6.87 25.73,-14.48l2.08 0.83 -5.31 16.87 -51.15 0.01 0 -2.71 0.11 0z"/>
   <path fill="#231F20" fill-rule="nonzero" d="M3409.11 1351.51c6.15,0 8.23,-1.87 8.23,-7.81l0 -40.94c0,-5.94 -2.08,-7.81 -8.23,-7.81l0 -2.81 30.42 -0.01 0 2.81c-6.15,0 -8.23,1.87 -8.23,7.81l0 40.94c0,5.1 0.1,7.29 6.35,7.29 10.42,0 19.27,-6.87 25.73,-14.48l2.08 0.83 -5.31 16.87 -51.15 0.01 0 -2.71 0.1 0z"/>
   <path fill="#231F20" fill-rule="nonzero" d="M3518.17 1340.78c1.87,6.15 2.71,10.52 10.42,10.73l0 2.81 -29.79 0 0 -2.81c5.42,-0.21 6.67,-1.25 6.67,-3.85 0,-1.67 -0.52,-3.44 -1.04,-4.9l-3.02 -10 -21.67 0 -1.98 5.31c-0.73,2.19 -1.67,4.79 -1.67,7.19 0,4.37 3.96,6.04 7.6,6.25l0 2.81 -22.6 -0 0 -2.81c7.92,-2.19 9.58,-6.46 12.29,-13.44l16.56 -44.17 12.4 -3.96 15.83 50.83zm-26.67 -39.37l-10.1 27.29 18.64 0 -8.54 -27.29z"/>
   <path fill="#231F20" fill-rule="nonzero" d="M3580.15 1335.36l0 -28.44c0,-7.19 -0.73,-11.35 -9.06,-12.08l0 -2.81 22.39 -0 0 2.81c-8.13,1.35 -8.85,4.58 -8.85,12.08l0 47.4 -7.71 0 -34.17 -48.33 0 32.6c0,9.27 1.04,11.04 10,12.92l0 2.81 -24.06 0 0 -2.81c8.13,-1.25 9.69,-3.85 9.69,-11.67l0 -39.06c-2.4,-3.02 -5.94,-5.1 -9.69,-5.83l0 -2.81 21.56 -0 29.9 43.23z"/>
   <path fill="#231F20" fill-rule="nonzero" d="M3595.46 1351.51c6.15,0 8.23,-1.87 8.23,-7.81l0 -40.94c0,-5.94 -2.08,-7.81 -8.23,-7.81l0 -2.81 29.58 -0.01c5.31,0 10,0.63 14.48,2.29 10.94,4.37 18.96,14.48 18.96,29.48 0,13.85 -8.23,24.27 -18.54,28.23 -4.48,1.77 -9.48,2.19 -14.9,2.19l-29.58 0 0 -2.81zm22.19 -8.75c0,6.35 0,8.23 7.5,8.23 10.63,0 18.54,-5.94 18.54,-29.37 0,-20.94 -7.92,-26.25 -19.48,-26.25 -6.56,0 -6.56,2.5 -6.56,7.92l0 39.48z"/>
  </g>
 </g>
</svg>
