<?xml version="1.0" encoding="utf-8"?>
<!-- Generator: Adobe Illustrator 26.2.1, SVG Export Plug-In . SVG Version: 6.00 Build 0)  -->
<svg version="1.1" id="Layer_1" xmlns="http://www.w3.org/2000/svg" xmlns:xlink="http://www.w3.org/1999/xlink" x="0px" y="0px"
	 viewBox="0 0 216.67 148.37" style="enable-background:new 0 0 216.67 148.37;" xml:space="preserve">
<style type="text/css">
	.st0{fill:#231F20;}
	.st1{fill:#FFFFFF;}
	.st2{fill:#007FC7;}
	.st3{font-family:'FuturaBT-Bold';}
	.st4{font-size:14.806px;}
	.st5{font-family:'FuturaBT-Medium';}
	.st6{font-size:27.5411px;}
	.st7{letter-spacing:-3.04;}
</style>
<path class="st0" d="M197.73,149.04H42.56c-10.46,0-18.94-8.48-18.94-18.94V69.74c3.58-5.52,7.16-11.04,10.74-16.55
	c-4.41-5.57-8.81-11.14-13.22-16.71c6.74,1.79,13.48,3.58,20.22,5.37c0.72-1.15,1.45-2.31,2.17-3.46
	c4.89-7.76,9.82-15.38,14.79-22.87h139.4c10.46,0,18.94,8.48,18.94,18.94v95.64C216.67,140.56,208.19,149.04,197.73,149.04z"/>
<path class="st1" d="M215.72,34.53v92.27c0,10-8.11,18.11-18.11,18.11H42.68c-10,0-18.11-8.11-18.11-18.11V77.12L1.41,92L25.8,54.06
	L0.67,23.27L39.1,33.42L60.62,0l0.92,16.41h136.07C207.61,16.41,215.72,24.53,215.72,34.53z"/>
<polygon class="st2" points="77.54,47.24 53.62,47.11 52.65,29.83 43.28,44.38 26.54,39.96 37.48,53.37 28.11,67.92 38.74,63.8 
	24.56,72.9 13.18,80.22 24.56,62.55 30.18,53.83 24.56,46.95 10.33,29.51 24.6,33.28 40.68,37.52 54.27,16.41 57.68,11.13 
	57.98,16.41 59.44,42.47 "/>
<rect x="45.62" y="110.96" class="st0" width="149.1" height="0.93"/>
<g>
	<path class="st0" d="M45.56,76.83V54.6h6.27c2.46,0,4.17,0.11,5.14,0.34c0.97,0.23,1.8,0.61,2.51,1.15
		c0.79,0.61,1.4,1.38,1.83,2.32c0.43,0.94,0.64,1.98,0.64,3.11c0,1.72-0.3,2.96-1.14,4.04c-0.84,1.08-2.01,1.83-3.62,2.19l6.89,9.08
		h-7.13l-5.59-8.7v8.7H45.56z M51.36,64.59h0.94c3.52,0,3.8-1.88,3.8-2.84c0-1.11-0.54-2.75-3.71-2.75h-1.03V64.59z"/>
	<path class="st0" d="M67.08,76.83V54.6H79.8v4.87h-6.93v3.86h6.5v4.77h-6.5v3.75h6.93v4.98H67.08z"/>
	<path class="st0" d="M147.9,76.83V54.6h6.27c2.46,0,4.17,0.11,5.14,0.34c0.97,0.23,1.8,0.61,2.51,1.15
		c0.79,0.61,1.4,1.38,1.83,2.32c0.43,0.94,0.64,1.98,0.64,3.11c0,1.72-0.3,2.96-1.14,4.04c-0.84,1.08-2.01,1.83-3.62,2.19l6.89,9.08
		h-7.13l-5.59-8.7v8.7H147.9z M153.69,64.59h0.94c3.52,0,3.8-1.88,3.8-2.84c0-1.11-0.54-2.75-3.71-2.75h-1.03V64.59z"/>
	<path class="st0" d="M130.59,76.83V54.6h12.72v4.87h-6.93v3.86h6.5v4.77h-6.5v3.75h6.93v4.98H130.59z"/>
	<path class="st0" d="M82.3,76.83l8.57-22.23h6.09l8.51,22.23h-6.09l-1.32-3.98h-8.28l-1.4,3.98H82.3z M91.34,68.53h5.22
		c0,0,0,0-2.65-7.48C91.34,68.53,91.34,68.53,91.34,68.53z"/>
	<path class="st0" d="M108.56,76.83V54.6h4.53c3.37,0,5.76,0.16,7.16,0.49c1.4,0.32,2.63,0.87,3.69,1.62
		c1.38,0.98,2.42,2.24,3.13,3.77c0.71,1.53,1.07,3.28,1.07,5.25c0,1.96-0.36,3.71-1.07,5.25c-0.71,1.53-1.76,2.79-3.13,3.77
		c-1.05,0.75-2.25,1.28-3.59,1.6c-1.35,0.32-3.43,0.48-6.26,0.48h-0.99H108.56z M114.42,71.85h0.99c2.33,0,4.02-0.49,5.09-1.47
		c1.07-0.98,1.6-2.53,1.6-4.65c0-2.13-0.53-3.69-1.6-4.68c-1.07-0.99-2.77-1.49-5.09-1.49h-0.99V71.85z"/>
	<path class="st0" d="M170.73,69.65c0.91,1.02,1.81,1.79,2.7,2.29c0.89,0.51,1.77,0.76,2.65,0.76c0.82,0,1.49-0.22,2.02-0.65
		c0.53-0.44,0.79-0.99,0.79-1.66c0-0.74-0.23-1.31-0.68-1.71c-0.46-0.4-1.49-0.81-3.09-1.24c-2.2-0.59-3.76-1.35-4.67-2.29
		s-1.37-2.23-1.37-3.87c0-2.13,0.72-3.86,2.16-5.2c1.44-1.34,3.3-2.01,5.6-2.01c1.24,0,2.41,0.16,3.52,0.49
		c1.11,0.33,2.16,0.83,3.16,1.5l-1.92,4.36c-0.7-0.59-1.41-1.03-2.14-1.33c-0.73-0.3-1.46-0.45-2.17-0.45
		c-0.74,0-1.34,0.17-1.8,0.52s-0.69,0.8-0.69,1.34c0,0.56,0.2,1,0.61,1.34c0.4,0.33,1.18,0.65,2.34,0.96l0.28,0.08
		c2.5,0.67,4.14,1.4,4.93,2.2c0.53,0.55,0.94,1.2,1.21,1.97c0.28,0.76,0.41,1.61,0.41,2.54c0,2.36-0.78,4.25-2.35,5.69
		c-1.57,1.43-3.65,2.15-6.27,2.15c-1.57,0-2.99-0.26-4.28-0.79c-1.28-0.53-2.52-1.35-3.71-2.48L170.73,69.65z"/>
	<path class="st0" d="M189.41,54.6h5.1l-5.44,9.77h-3.39L189.41,54.6z"/>
</g>
<g>
	<path class="st0" d="M57.66,83.59v5.4c-0.68-0.75-1.35-1.3-2.02-1.65c-0.67-0.35-1.39-0.53-2.16-0.53c-1.42,0-2.57,0.49-3.45,1.46
		c-0.88,0.97-1.32,2.24-1.32,3.8c0,1.45,0.45,2.66,1.34,3.62c0.9,0.96,2.04,1.44,3.42,1.44c0.77,0,1.49-0.18,2.16-0.53
		c0.67-0.35,1.35-0.91,2.02-1.67v5.41c-0.78,0.38-1.56,0.66-2.34,0.85c-0.78,0.19-1.56,0.28-2.35,0.28c-0.99,0-1.91-0.12-2.74-0.35
		c-0.84-0.24-1.61-0.59-2.31-1.07c-1.35-0.91-2.39-2.05-3.1-3.43c-0.71-1.38-1.07-2.93-1.07-4.66c0-1.39,0.22-2.65,0.67-3.78
		c0.45-1.14,1.13-2.17,2.04-3.09c0.86-0.88,1.83-1.54,2.9-1.98s2.28-0.66,3.6-0.66c0.79,0,1.58,0.1,2.35,0.28
		C56.1,82.92,56.88,83.21,57.66,83.59z"/>
	<path class="st0" d="M60.63,101.01V82.88h4.94v7.05h6.59v-7.05h4.95v18.13h-4.95v-7.38h-6.59v7.38H60.63z"/>
	<path class="st0" d="M99.02,91.89c0,5.29-4.5,9.58-10.06,9.58S78.9,97.18,78.9,91.89c0-5.29,4.5-9.58,10.06-9.58
		S99.02,86.6,99.02,91.89z M88.96,86.86c-2.84,0-5.14,2.25-5.14,5.03s2.3,5.03,5.14,5.03c2.84,0,5.14-2.25,5.14-5.03
		S91.8,86.86,88.96,86.86z"/>
	<path class="st0" d="M100.79,101.01V82.88h4.69v18.13H100.79z"/>
	<path class="st0" d="M121.19,83.59v5.4c-0.68-0.75-1.35-1.3-2.03-1.65c-0.67-0.35-1.39-0.53-2.16-0.53c-1.42,0-2.57,0.49-3.45,1.46
		c-0.88,0.97-1.32,2.24-1.32,3.8c0,1.45,0.45,2.66,1.34,3.62c0.9,0.96,2.04,1.44,3.42,1.44c0.77,0,1.49-0.18,2.16-0.53
		c0.67-0.35,1.35-0.91,2.03-1.67v5.41c-0.78,0.38-1.56,0.66-2.34,0.85c-0.78,0.19-1.56,0.28-2.35,0.28c-0.99,0-1.91-0.12-2.74-0.35
		c-0.84-0.24-1.61-0.59-2.31-1.07c-1.35-0.91-2.39-2.05-3.1-3.43c-0.71-1.38-1.07-2.93-1.07-4.66c0-1.39,0.22-2.65,0.67-3.78
		c0.45-1.14,1.13-2.17,2.04-3.09c0.86-0.88,1.83-1.54,2.9-1.98c1.08-0.44,2.28-0.66,3.6-0.66c0.79,0,1.58,0.1,2.35,0.28
		C119.62,82.92,120.4,83.21,121.19,83.59z"/>
	<path class="st0" d="M122.96,101.01V82.88h10.36v3.98h-5.74V90h5.4v3.89h-5.4v3.06h5.74v4.06H122.96z"/>
</g>
<text transform="matrix(0.9569 0 0 1 47.9814 131.6447)" class="st3 st4">PLATINUM WINNER</text>
<text transform="matrix(0.9862 0 0 1 137.6397 101.2892)" class="st0 st5 st6 st7">20</text>
<text transform="matrix(0.9862 0 0 1 165.9415 101.2892)" class="st0 st5 st6 st7">20</text>
<g>
	<path class="st0" d="M128.78,34v-0.68h-7.36V34c1.48,0,1.99,0.45,1.99,1.89v9.9c0,1.44-0.66,1.89-2.14,1.89
		c-1.77-0.12-2.46-1.39-3.22-2.79l-1.11-2.22c-0.35-0.68-0.68-1.4-1.32-1.83c1.97-0.37,3.96-1.44,3.96-3.7
		c0-2.18-1.87-3.82-4.91-3.82h-8.84V34c1.48,0,1.99,0.45,1.99,1.89v9.9c0,1.44-0.51,1.89-1.99,1.89v0.68h7.36v-0.68
		c-1.48,0-1.99-0.45-1.99-1.89v-4.6c0.86,0,1.66,0.23,2.9,2.88l1.21,2.57c0.29,0.58,0.54,1.19,0.89,1.73h12.58v-0.68
		c-1.48,0-1.99-0.45-1.99-1.89v-9.9C126.79,34.45,127.3,34,128.78,34z M111.6,40.22h-0.39v-4.42c0-1.17,0.06-1.68,1.42-1.68
		c2.2,0,3.39,0.74,3.39,2.81C116.02,39.11,114.99,40.22,111.6,40.22z"/>
	<path class="st0" d="M129.13,48.36v-0.68c1.48,0,1.99-0.45,1.99-1.89v-9.9c0-1.44-0.51-1.89-1.99-1.89v-0.68h7.46
		c5.24,0,6.39,1.62,6.39,3.45c0,2.12-2.16,3.1-3.95,3.47v0.04c2.28,0.45,4.62,1.29,4.62,4.07c0,2.42-1.77,4.01-5.77,4.01H129.13z
		 M135.67,39.83c2.59,0,3.74-0.86,3.74-3c0-2.14-1.25-2.84-3.23-2.84c-0.47,0-1.11,0.06-1.44,0.39c-0.27,0.31-0.25,0.74-0.25,1.11
		v4.34H135.67z M134.5,45.13c0,1.77-0.04,2.55,2.08,2.55c2.01,0,3.51-0.99,3.51-3.64c0-1.83-0.64-3.25-4.4-3.25h-1.19V45.13z"/>
	<path class="st0" d="M148.43,43.12c-0.06,3.72,1.13,4.81,3.35,4.81c2.98,0,3.9-1.83,3.9-4.83v-7.21c0-1.44-0.51-1.89-1.99-1.89
		v-0.68h5.05V34c-1.48,0-1.99,0.45-1.99,1.89v7.38c0,3.58-1.56,5.47-5.57,5.47c-4.09,0-6.12-1.85-6.12-5.03v-7.81
		c0-1.44-0.51-1.89-1.99-1.89v-0.68h7.36V34c-1.48,0-1.99,0.45-1.99,1.89V43.12z"/>
	<path class="st0" d="M171.6,43.78v-6.86c0-1.75-0.16-2.73-2.2-2.92v-0.68h5.4V34c-1.95,0.33-2.14,1.11-2.14,2.92v11.45h-1.87
		l-8.26-11.69v7.89c0,2.24,0.25,2.67,2.4,3.12v0.68h-5.82v-0.68c1.97-0.31,2.34-0.92,2.34-2.81v-9.45
		c-0.58-0.72-1.44-1.23-2.34-1.42v-0.68h5.22L171.6,43.78z"/>
	<path class="st0" d="M175.17,47.68c1.48,0,1.99-0.45,1.99-1.89v-9.9c0-1.44-0.51-1.89-1.99-1.89v-0.68h12.39l1.29,3.84l-0.64,0.27
		c-1.38-1.79-3.51-3.31-5.86-3.31c-1.83,0-1.83,0.62-1.83,2.14v4.01h0.41c2.05,0,2.96-0.35,3.66-2.42h0.8v5.94h-0.8
		c-0.55-2.08-1.6-2.55-3.62-2.55h-0.45v4.34c0,1.19,0.12,1.99,1.58,1.99c2.55,0,4.83-1.44,6.43-3.31l0.55,0.29l-1.54,3.82h-12.39
		V47.68z"/>
</g>
<path class="st2" d="M105.85,25.39v10.26l-1.29-4.78H90.24l-1.17,4.78l0.89,0.24c1.27-1.93,3.13-3.8,5.52-4.09v13.57
	c0,1.67-0.6,2.2-2.32,2.2v0.79H82.88V25.39H105.85z"/>
<path class="st2" d="M104.96,35.88l0.89-0.24v12.71h-4.14v-0.79c-1.72,0-2.32-0.53-2.32-2.2V31.8
	C101.69,31.85,103.81,34.09,104.96,35.88z"/>
<g>
	<path class="st0" d="M111.55,25.43v0.27c-0.25,0.02-0.48,0.05-0.48,0.36c0,0.17,0.1,0.48,0.15,0.65l0.95,2.93l0.89-2.68l-0.16-0.5
		l-0.07-0.16c-0.13-0.38-0.29-0.57-0.7-0.6v-0.27h2.56v0.27c-0.25,0.01-0.51,0.06-0.51,0.37c0,0.13,0.06,0.28,0.09,0.4l1.05,3.22
		l1-2.99c0.05-0.15,0.1-0.3,0.1-0.46c0-0.41-0.36-0.55-0.71-0.55v-0.27h1.96v0.27c-0.43,0.09-0.62,0.07-1.05,1.36l-1.46,4.45h-0.56
		l-1.33-3.89l-1.29,3.89h-0.57l-1.62-5.04c-0.16-0.47-0.2-0.7-0.75-0.77v-0.27H111.55z"/>
	<path class="st0" d="M117.7,31.13c0.59,0,0.79-0.18,0.79-0.75v-3.93c0-0.57-0.2-0.75-0.79-0.75v-0.27h4.92l0.51,1.53l-0.25,0.11
		c-0.55-0.71-1.4-1.31-2.33-1.31c-0.73,0-0.73,0.24-0.73,0.85v1.59h0.16c0.82,0,1.18-0.14,1.45-0.96h0.32v2.36h-0.32
		c-0.22-0.82-0.64-1.01-1.44-1.01h-0.18v1.72c0,0.47,0.05,0.79,0.63,0.79c1.01,0,1.92-0.57,2.55-1.31l0.22,0.11l-0.61,1.52h-4.92
		V31.13z"/>
	<path class="st0" d="M123.23,31.13c0.59,0,0.79-0.18,0.79-0.75v-3.93c0-0.57-0.2-0.75-0.79-0.75v-0.27h2.92v0.27
		c-0.59,0-0.79,0.18-0.79,0.75v3.93c0,0.49,0.01,0.7,0.61,0.7c1,0,1.85-0.66,2.47-1.39l0.2,0.08l-0.51,1.62h-4.91V31.13z"/>
	<path class="st0" d="M128.41,31.13c0.59,0,0.79-0.18,0.79-0.75v-3.93c0-0.57-0.2-0.75-0.79-0.75v-0.27h2.92v0.27
		c-0.59,0-0.79,0.18-0.79,0.75v3.93c0,0.49,0.01,0.7,0.61,0.7c1,0,1.85-0.66,2.47-1.39l0.2,0.08l-0.51,1.62h-4.91V31.13z"/>
	<path class="st0" d="M138.88,30.1c0.18,0.59,0.26,1.01,1,1.03v0.27h-2.86v-0.27c0.52-0.02,0.64-0.12,0.64-0.37
		c0-0.16-0.05-0.33-0.1-0.47l-0.29-0.96h-2.08L135,29.84c-0.07,0.21-0.16,0.46-0.16,0.69c0,0.42,0.38,0.58,0.73,0.6v0.27h-2.17
		v-0.27c0.76-0.21,0.92-0.62,1.18-1.29l1.59-4.24l1.19-0.38L138.88,30.1z M136.32,26.32l-0.97,2.62h1.79L136.32,26.32z"/>
	<path class="st0" d="M144.83,29.58v-2.73c0-0.69-0.07-1.09-0.87-1.16v-0.27h2.15v0.27c-0.78,0.13-0.85,0.44-0.85,1.16v4.55h-0.74
		l-3.28-4.64v3.13c0,0.89,0.1,1.06,0.96,1.24v0.27h-2.31v-0.27c0.78-0.12,0.93-0.37,0.93-1.12v-3.75c-0.23-0.29-0.57-0.49-0.93-0.56
		v-0.27h2.07L144.83,29.58z"/>
	<path class="st0" d="M146.3,31.13c0.59,0,0.79-0.18,0.79-0.75v-3.93c0-0.57-0.2-0.75-0.79-0.75v-0.27h2.84
		c0.51,0,0.96,0.06,1.39,0.22c1.05,0.42,1.82,1.39,1.82,2.83c0,1.33-0.79,2.33-1.78,2.71c-0.43,0.17-0.91,0.21-1.43,0.21h-2.84
		V31.13z M148.43,30.29c0,0.61,0,0.79,0.72,0.79c1.02,0,1.78-0.57,1.78-2.82c0-2.01-0.76-2.52-1.87-2.52
		c-0.63,0-0.63,0.24-0.63,0.76V30.29z"/>
</g>
</svg>
